#N canvas 1039 520 450 300 10;
#X obj 308 103 *~ 0.6;
#X obj 104 103 *~ 0.6;
#X obj 84 190 *~ 0.25;
#X obj 33 190 *~ 0.75;
#X obj 180 190 *~ 0.25;
#X obj 231 190 *~ 0.75;
#X obj 100 253 outlet~;
#X obj 151 253 outlet~;
#X obj 33 20 inlet~;
#X obj 231 20 inlet~;
#X obj 33 65 delwrite~ \$0-eightdelayL 469.804;
#X obj 33 141 delread~ \$0-eightdelayL 117.451;
#X obj 231 65 delwrite~ \$0-eightdelayR 469.804;
#X obj 231 141 delread~ \$0-eightdelayR 234.902;
#X connect 0 0 12 0;
#X connect 1 0 10 0;
#X connect 2 0 7 0;
#X connect 3 0 6 0;
#X connect 4 0 6 0;
#X connect 5 0 7 0;
#X connect 8 0 10 0;
#X connect 9 0 12 0;
#X connect 11 0 1 0;
#X connect 11 0 3 0;
#X connect 11 0 2 0;
#X connect 13 0 0 0;
#X connect 13 0 4 0;
#X connect 13 0 5 0;
