#N canvas -8 -8 1904 996 10;
#X obj 5 593 hip~ 5;
#X obj 5 629 dac~;
#X obj 68 72 bng 15 250 50 0 empty empty empty 0 -6 0 8 -262144 -1
-1;
#X obj 5 40 sel 1, f 11;
#X obj 5 7 tgl 17 0 empty empty empty 0 -6 0 8 -262144 -1 -1 0 1;
#X obj 18 71 del 20;
#X msg 68 92 stop;
#X text 24 7 start loop;
#X obj 219 94 adc~ 1;
#X obj 111 232 bonk~;
#X msg 805 36 \; pd dsp 1;
#X obj 138 262 spigot;
#X obj 171 233 tgl 15 0 empty empty empty 0 -6 0 8 -262144 -1 -1 0
1;
#X obj 138 292 print cooked;
#X text 170 73 don't forget to set channel;
#X text 250 184 set low and high thresholds. signal growth must exceed
the high one and then fall to the low one to make an attack., f 33
;
#X obj 5 347 timer, f 7;
#X obj 5 559 *~;
#X obj 36 539 hsl 128 15 0 1 0 0 empty empty volume 0 -10 0 10 -262144
-1 -1 12700 1;
#X obj 5 374 * 44.1;
#X floatatom 26 444 6 0 0 0 - - -, f 6;
#X obj 44 292 gate;
#X obj 44 320 bng 15 250 50 0 empty empty empty 17 7 0 10 -262144 -1
-1;
#X obj 280 398 bng 15 250 50 0 empty empty empty 17 7 0 10 -262144
-1 -1;
#X obj 68 134 tabwrite~ micinput;
#X obj 5 503 tabplay~ micinput;
#X obj 83 292 == 0;
#X obj 56 347 sel 1;
#X obj 80 40 s lt;
#X obj 44 232 r lt;
#X msg 13 307 0;
#X msg 16 165 \; micinput const 0;
#X obj 454 600 dac~, f 5;
#X obj 525 437 bng 15 250 50 0 empty empty empty 17 7 0 10 -262144
-1 -1;
#X msg 454 404 open bass.wav \, 1;
#X obj 454 558 *~;
#X obj 734 29 tgl 59 0 empty empty killswitch 0 -10 0 10 -262144 -258049
-1 0 1;
#X obj 525 375 sel 1;
#X obj 454 436 readsf~ 2;
#X obj 479 558 *~;
#X obj 491 343 r ks;
#X obj 734 116 s ks;
#X obj 569 600 dac~, f 5;
#X obj 640 437 bng 15 250 50 0 empty empty empty 17 7 0 10 -262144
-1 -1;
#X obj 569 558 *~;
#X obj 609 528 hsl 58 16 0 1 0 0 empty empty beat 0 -10 0 10 -262144
-1 -1 5700 1;
#X obj 640 375 sel 1;
#X obj 569 436 readsf~ 2;
#X obj 594 558 *~;
#X obj 606 343 r ks;
#X msg 569 404 open beat.wav \, 1;
#X obj 683 600 dac~, f 5;
#X obj 754 437 bng 15 250 50 0 empty empty empty 17 7 0 10 -262144
-1 -1;
#X obj 683 558 *~;
#X obj 723 528 hsl 58 16 0 1 0 0 empty empty beat2 0 -10 0 10 -262144
-1 -1 0 1;
#X obj 754 375 sel 1;
#X obj 683 436 readsf~ 2;
#X obj 708 558 *~;
#X obj 720 343 r ks;
#X msg 682 404 open beat2.wav \, 1;
#X obj 803 600 dac~, f 5;
#X obj 874 437 bng 15 250 50 0 empty empty empty 17 7 0 10 -262144
-1 -1;
#X obj 803 558 *~;
#X obj 843 528 hsl 58 16 0 1 0 0 empty empty fx1 0 -10 0 10 -262144
-1 -1 0 1;
#X obj 874 375 sel 1;
#X obj 803 436 readsf~ 2;
#X obj 828 558 *~;
#X obj 840 343 r ks;
#X msg 802 404 open fx1.wav \, 1;
#X obj 918 600 dac~, f 5;
#X obj 989 437 bng 15 250 50 0 empty empty empty 17 7 0 10 -262144
-1 -1;
#X obj 918 558 *~;
#X obj 958 528 hsl 58 16 0 1 0 0 empty empty fx2 0 -10 0 10 -262144
-1 -1 0 1;
#X obj 989 375 sel 1;
#X obj 918 436 readsf~ 2;
#X obj 943 558 *~;
#X obj 955 343 r ks;
#X msg 917 404 open fx2.wav \, 1;
#X obj 1033 600 dac~, f 5;
#X obj 1104 437 bng 15 250 50 0 empty empty empty 17 7 0 10 -262144
-1 -1;
#X obj 1033 558 *~;
#X obj 1073 528 hsl 58 16 0 1 0 0 empty empty synth 0 -10 0 10 -262144
-1 -1 0 1;
#X obj 1104 375 sel 1;
#X obj 1033 436 readsf~ 2;
#X obj 1058 558 *~;
#X obj 1070 343 r ks;
#X msg 1032 404 open synth.wav \, 1;
#X obj 797 116 metro;
#X msg 797 71 tempo 123 permin;
#X obj 797 150 bng 24 250 50 0 empty empty empty 17 7 0 10 -262144
-1 -1;
#X obj 797 13 loadbang;
#X obj 612 245 bng 52 250 50 0 empty empty bass 15 23 0 10 -262144
-1 -1;
#X obj 827 154 s b;
#X obj 494 528 hsl 58 16 0 1 0 0 empty empty bass 0 -10 0 10 -262144
-1 -1 5700 1;
#X obj 494 490 loopcue;
#X obj 612 305 s bass;
#X obj 494 464 r bass;
#X obj 609 490 loopcue;
#X obj 672 245 bng 52 250 50 0 empty empty beat 15 23 0 10 -262144
-1 -1;
#X obj 672 305 s beat;
#X obj 609 464 r beat;
#X obj 733 245 bng 52 250 50 0 empty empty beat2 12 23 0 10 -262144
-1 -1;
#X obj 793 245 bng 52 250 50 0 empty empty fx1 17 23 0 10 -262144 -1
-1;
#X obj 853 245 bng 52 250 50 0 empty empty fx2 17 23 0 10 -262144 -1
-1;
#X obj 912 245 bng 52 250 50 0 empty empty synth 13 23 0 10 -262144
-1 -1;
#X obj 733 305 s beat2;
#X obj 793 305 s fx1;
#X obj 853 305 s fx2;
#X obj 912 305 s synth;
#X obj 723 491 loopcue;
#X obj 723 465 r beat2;
#X obj 843 492 loopcue;
#X obj 843 466 r fx1;
#X obj 958 491 loopcue;
#X obj 958 465 r fx2;
#X obj 1073 490 loopcue;
#X obj 1073 464 r synth;
#X obj 171 177 loadbang;
#X msg 150 202 thresh 2.5 100;
#X obj 120 503 table micinput 172078;
#X floatatom 855 155 5 0 0 0 - - -, f 5;
#X obj 855 116 counter 1 4;
#X obj 886 94 sel 0;
#X obj 280 337 sel 2;
#X obj 5 467 gate;
#X obj 83 319 t f f;
#X obj 5 399 - 512;
#X obj 317 337 sel 4;
#X connect 0 0 1 1;
#X connect 0 0 1 0;
#X connect 2 0 6 0;
#X connect 3 0 5 0;
#X connect 3 0 16 0;
#X connect 3 0 31 0;
#X connect 3 1 2 0;
#X connect 4 0 3 0;
#X connect 4 0 28 0;
#X connect 5 0 24 0;
#X connect 6 0 24 0;
#X connect 8 0 9 0;
#X connect 8 0 24 0;
#X connect 9 1 11 0;
#X connect 9 1 21 1;
#X connect 11 0 13 0;
#X connect 12 0 11 1;
#X connect 16 0 19 0;
#X connect 17 0 0 0;
#X connect 18 0 17 1;
#X connect 19 0 126 0;
#X connect 20 0 124 1;
#X connect 21 0 22 0;
#X connect 22 0 16 1;
#X connect 22 0 30 0;
#X connect 23 0 20 0;
#X connect 25 0 17 0;
#X connect 26 0 125 0;
#X connect 27 0 19 0;
#X connect 29 0 21 0;
#X connect 29 0 26 0;
#X connect 30 0 21 0;
#X connect 33 0 34 0;
#X connect 34 0 38 0;
#X connect 35 0 32 0;
#X connect 36 0 41 0;
#X connect 36 0 87 0;
#X connect 36 0 122 0;
#X connect 37 0 33 0;
#X connect 38 0 35 0;
#X connect 38 1 39 0;
#X connect 38 2 33 0;
#X connect 39 0 32 1;
#X connect 40 0 37 0;
#X connect 40 0 38 0;
#X connect 43 0 50 0;
#X connect 44 0 42 0;
#X connect 45 0 44 1;
#X connect 45 0 48 1;
#X connect 46 0 43 0;
#X connect 47 0 44 0;
#X connect 47 1 48 0;
#X connect 47 2 43 0;
#X connect 48 0 42 1;
#X connect 49 0 46 0;
#X connect 49 0 47 0;
#X connect 50 0 47 0;
#X connect 52 0 59 0;
#X connect 53 0 51 0;
#X connect 54 0 53 1;
#X connect 54 0 57 1;
#X connect 55 0 52 0;
#X connect 56 0 53 0;
#X connect 56 1 57 0;
#X connect 56 2 52 0;
#X connect 57 0 51 1;
#X connect 58 0 55 0;
#X connect 58 0 56 0;
#X connect 59 0 56 0;
#X connect 61 0 68 0;
#X connect 62 0 60 0;
#X connect 63 0 62 1;
#X connect 63 0 66 1;
#X connect 64 0 61 0;
#X connect 65 0 62 0;
#X connect 65 1 66 0;
#X connect 65 2 61 0;
#X connect 66 0 60 1;
#X connect 67 0 64 0;
#X connect 67 0 65 0;
#X connect 68 0 65 0;
#X connect 70 0 77 0;
#X connect 71 0 69 0;
#X connect 72 0 71 1;
#X connect 72 0 75 1;
#X connect 73 0 70 0;
#X connect 74 0 71 0;
#X connect 74 1 75 0;
#X connect 74 2 70 0;
#X connect 75 0 69 1;
#X connect 76 0 73 0;
#X connect 76 0 74 0;
#X connect 77 0 74 0;
#X connect 79 0 86 0;
#X connect 80 0 78 0;
#X connect 81 0 80 1;
#X connect 81 0 84 1;
#X connect 82 0 79 0;
#X connect 83 0 80 0;
#X connect 83 1 84 0;
#X connect 83 2 79 0;
#X connect 84 0 78 1;
#X connect 85 0 82 0;
#X connect 85 0 83 0;
#X connect 86 0 83 0;
#X connect 87 0 89 0;
#X connect 87 0 92 0;
#X connect 87 0 121 0;
#X connect 88 0 87 0;
#X connect 90 0 88 0;
#X connect 90 0 10 0;
#X connect 91 0 95 0;
#X connect 93 0 35 1;
#X connect 93 0 39 1;
#X connect 94 0 93 0;
#X connect 96 0 94 0;
#X connect 97 0 45 0;
#X connect 98 0 99 0;
#X connect 100 0 97 0;
#X connect 101 0 105 0;
#X connect 102 0 106 0;
#X connect 103 0 107 0;
#X connect 104 0 108 0;
#X connect 109 0 54 0;
#X connect 110 0 109 0;
#X connect 111 0 63 0;
#X connect 112 0 111 0;
#X connect 113 0 72 0;
#X connect 114 0 113 0;
#X connect 115 0 81 0;
#X connect 116 0 115 0;
#X connect 117 0 118 0;
#X connect 118 0 9 0;
#X connect 120 0 123 0;
#X connect 120 0 127 0;
#X connect 121 0 120 0;
#X connect 122 0 121 2;
#X connect 123 0 23 0;
#X connect 124 0 25 0;
#X connect 125 0 27 1;
#X connect 125 1 124 0;
#X connect 126 0 20 0;
#X connect 127 0 23 0;
