#N canvas -8 -8 2544 1356 10;
#X obj 62 724 dac~, f 9;
#X msg 858 97 \; pd dsp 1;
#X obj 62 649 *~;
#X floatatom 83 469 6 0 0 0 - - -, f 6;
#X obj 83 442 bng 15 250 50 0 empty empty empty 17 7 0 10 -262144 -1
-1;
#X obj 784 707 dac~, f 5;
#X obj 787 90 tgl 59 0 empty empty on/off 0 -10 0 10 -262144 -258049
-1 1 1;
#X obj 787 177 s ks;
#X obj 422 707 dac~, f 16;
#X obj 976 707 dac~, f 5;
#X obj 850 177 metro;
#X msg 850 132 tempo 123 permin;
#X obj 850 211 bng 24 250 50 0 empty empty empty 17 7 0 10 -262144
-1 -1;
#X obj 850 74 loadbang;
#X obj 485 333 bng 52 250 50 0 empty empty bass 15 23 0 10 -262144
-1 -1;
#X obj 485 393 s bass;
#X obj 422 333 bng 52 250 50 0 empty empty beat 15 23 0 10 -262144
-1 -1;
#X obj 422 393 s beat;
#X obj 611 333 bng 52 250 50 0 empty empty fx 19 22 0 10 -262144 -1
-1;
#X obj 548 333 bng 52 250 50 0 empty empty synth 13 23 0 10 -262144
-1 -1;
#X obj 548 393 s synth;
#X obj 919 177 counter 1 4;
#X obj 950 155 sel 0;
#X obj 62 499 gate;
#X obj 919 215 s count;
#X obj 83 361 r count;
#X floatatom 83 388 5 0 0 0 - - -, f 5;
#X obj 83 413 sel 1;
#X obj 144 190 adc~ 2;
#X obj 75 146 bng 26 250 50 0 empty empty empty 17 7 0 10 -262144 -1
-1;
#X text 106 151 record a sample!;
#N canvas 536 663 593 522 samplerec 0;
#X obj 323 224 bng 15 250 50 0 empty empty empty 0 -6 0 8 -262144 -1
-1;
#X obj 200 192 sel 1, f 21;
#X msg 323 244 stop;
#X obj 323 286 tabwrite~ sample;
#X msg 200 321 \; sample const 0;
#X obj 213 223 del 64;
#X obj 200 129 counter 1;
#X obj 261 286 s sr;
#X obj 200 100 inlet;
#X obj 216 161 outlet;
#X obj 371 244 inlet~;
#X obj 166 100 r sr;
#X text 323 313 sample waveform:;
#X text 42 100 sr: stops recording;
#X text 40 260 start timer in pd samplestart subpatch, f 14;
#X obj 262 161 s recstate;
#X obj 133 273 s stim;
#X obj 314 334 table sample 176400;
#X text 434 334 = 4 seconds @ 44.1kHz;
#X obj 261 223 del 4000;
#X msg 34 184 \; sample normalize -1 1;
#X obj 34 159 bng 15 250 50 0 empty empty empty 17 7 0 10 -262144 -1
-1;
#X connect 0 0 2 0;
#X connect 1 0 4 0;
#X connect 1 0 5 0;
#X connect 1 0 16 0;
#X connect 1 0 19 0;
#X connect 1 1 0 0;
#X connect 2 0 3 0;
#X connect 2 0 19 0;
#X connect 5 0 3 0;
#X connect 6 0 1 0;
#X connect 6 0 9 0;
#X connect 6 0 15 0;
#X connect 8 0 6 0;
#X connect 10 0 3 0;
#X connect 11 0 6 0;
#X connect 11 0 21 0;
#X connect 19 0 7 0;
#X connect 21 0 20 0;
#X restore 75 230 pd samplerec;
#X obj 75 290 tgl 26 0 empty empty empty 17 7 0 10 -262144 -258049
-1 0 1;
#X text 8 295 recording?;
#N canvas 1262 646 843 481 samplestart 0;
#X obj 202 143 bonk~;
#X obj 230 80 loadbang;
#X obj 115 275 timer, f 16;
#X obj 115 305 * 44.1;
#X obj 208 212 gate;
#X obj 208 240 bng 15 250 50 0 empty empty empty 17 7 0 10 -262144
-1 -1;
#X msg 177 227 0;
#X msg 230 108 minvel 40;
#X obj 115 362 outlet;
#X obj 202 48 inlet~;
#X obj 115 227 r stim;
#X text 23 212 receives from pd samplerec subpatch, f 13;
#X obj 129 143 r recstate;
#X text 57 122 checks recording state;
#X obj 115 333 - 4096;
#X text 298 108 minimum "velocity" to output (quieter notes are ignored)
;
#X connect 0 1 4 1;
#X connect 1 0 7 0;
#X connect 2 0 3 0;
#X connect 3 0 14 0;
#X connect 4 0 5 0;
#X connect 5 0 2 1;
#X connect 5 0 6 0;
#X connect 6 0 4 0;
#X connect 7 0 0 0;
#X connect 9 0 0 0;
#X connect 10 0 2 0;
#X connect 12 0 4 0;
#X connect 14 0 8 0;
#X restore 159 230 pd samplestart;
#X text 187 190 set channel;
#X obj 159 299 s bonk;
#X obj 103 441 r bonk;
#X obj 62 522 tabplay~ sample;
#X obj 62 333 == 0;
#X text 120 413 triggers recorded sample at beat ...;
#X text 125 469 plays recording from ...nth sample;
#X obj 880 215 s met;
#X obj 62 671 hip~ 150;
#X obj 422 258 notein;
#X obj 422 282 stripnote;
#X obj 422 307 sel 61;
#X obj 611 307 sel 63;
#X obj 75 69 notein;
#X obj 75 93 stripnote;
#X obj 75 116 sel 60;
#X obj 485 307 sel 62;
#X obj 548 306 sel 64;
#X obj 787 56 sel 66;
#X obj 787 8 notein;
#X obj 787 32 stripnote;
#X obj 674 333 bng 52 250 50 0 empty empty micsamp 5 22 0 10 -262144
-1 -1;
#X obj 674 306 sel 65;
#X obj 674 393 s micsamp;
#X obj 77 581 loopcue;
#X obj 77 559 r micsamp;
#X text 526 241 sample triggers;
#X obj 422 452 ctlin 102;
#X obj 422 474 hsl 53 15 0 127 0 0 empty empty empty -2 -8 0 10 -262144
-1 -1 5200 1;
#X obj 422 603 morphcue, f 16;
#X obj 422 579 bng 15 250 50 0 empty empty empty 17 7 0 10 -262144
-1 -1;
#N canvas 1096 27 1262 1363 beat_playback 0;
#X obj 143 122 bng 15 250 50 0 empty empty empty 17 7 0 10 -262144
-1 -1;
#X obj 72 243 *~;
#X obj 143 60 sel 1;
#X obj 72 121 readsf~ 2;
#X obj 97 243 *~;
#X obj 143 28 r ks;
#X obj 306 122 bng 15 250 50 0 empty empty empty 17 7 0 10 -262144
-1 -1;
#X obj 235 243 *~;
#X obj 306 60 sel 1;
#X obj 235 121 readsf~ 2;
#X obj 260 243 *~;
#X obj 306 28 r ks;
#X obj 154 243 loopcue;
#X obj 154 217 r beat;
#X msg 72 89 open soundset/beat.wav \, 1;
#X msg 235 89 open soundset/beat2.wav \, 1;
#X obj 139 304 *~;
#X obj 164 304 *~;
#X obj 139 353 outlet~;
#X obj 189 353 outlet~;
#X obj 143 171 inlet;
#X obj 182 171 inlet;
#X connect 0 0 14 0;
#X connect 1 0 16 0;
#X connect 2 0 0 0;
#X connect 2 1 3 0;
#X connect 3 0 1 0;
#X connect 3 1 4 0;
#X connect 3 2 0 0;
#X connect 4 0 17 0;
#X connect 5 0 2 0;
#X connect 6 0 15 0;
#X connect 7 0 16 0;
#X connect 8 0 6 0;
#X connect 8 1 9 0;
#X connect 9 0 7 0;
#X connect 9 1 10 0;
#X connect 9 2 6 0;
#X connect 10 0 17 0;
#X connect 11 0 8 0;
#X connect 12 0 17 1;
#X connect 12 0 16 1;
#X connect 13 0 12 0;
#X connect 14 0 3 0;
#X connect 15 0 9 0;
#X connect 16 0 18 0;
#X connect 17 0 19 0;
#X connect 20 0 1 1;
#X connect 20 0 4 1;
#X connect 21 0 7 1;
#X connect 21 0 10 1;
#X restore 422 641 pd beat_playback;
#X msg 468 555 123;
#X text 443 555 bpm;
#X text 544 579 how many measures the morph will take;
#X obj 422 494 sel 127;
#N canvas 1594 520 450 300 bass_playback 0;
#X obj 115 115 bng 15 250 50 0 empty empty empty 17 7 0 10 -262144
-1 -1;
#X obj 44 272 *~;
#X obj 115 53 sel 1;
#X obj 44 114 readsf~ 2;
#X obj 69 272 *~;
#X obj 115 21 r ks;
#X obj 84 231 hsl 58 16 0 1 0 0 empty empty bass 0 -10 0 10 -262144
-1 -1 5700 1;
#X obj 84 168 loopcue;
#X obj 84 142 r bass;
#X msg 44 82 open soundset/bass.wav \, 1;
#X obj 44 297 outlet~;
#X obj 94 297 outlet~;
#X obj 84 197 * 2;
#X connect 0 0 9 0;
#X connect 1 0 10 0;
#X connect 2 0 0 0;
#X connect 2 1 3 0;
#X connect 3 0 1 0;
#X connect 3 1 4 0;
#X connect 3 2 0 0;
#X connect 4 0 11 0;
#X connect 5 0 2 0;
#X connect 6 0 1 1;
#X connect 6 0 4 1;
#X connect 7 0 12 0;
#X connect 8 0 7 0;
#X connect 9 0 3 0;
#X connect 12 0 6 0;
#X restore 784 579 pd bass_playback;
#X obj 835 474 hsl 53 15 0 127 0 0 empty empty empty -2 -8 0 10 -262144
-1 -1 5200 1;
#X obj 835 452 ctlin 103;
#N canvas 0 0 2528 1340 lopass 0;
#X obj 112 130 / 25;
#X obj 50 113 mtof;
#X obj 50 158 pack 0 50;
#X obj 50 183 line~;
#X floatatom 50 136 7 0 0 0 - - -, f 7;
#X msg 238 154 saturation \$1;
#X obj 238 130 / 100;
#X msg 330 154 oversample \$1;
#X text 148 152 scaled to 0-8;
#X text 147 134 0-200 control;
#X obj 111 158 line~;
#X obj 36 234 bob~;
#X obj 36 59 inlet~;
#X obj 238 72 loadbang;
#X text 371 67 oversampling;
#X obj 375 90 loadbang;
#X text 230 33 saturation point;
#X text 227 50 of "transistors";
#X msg 238 97 300;
#X obj 36 273 outlet~;
#X msg 375 115 10;
#X obj 50 85 inlet;
#X text 141 105 resonance;
#X msg 112 105 30;
#X connect 0 0 10 0;
#X connect 1 0 4 0;
#X connect 2 0 3 0;
#X connect 3 0 11 1;
#X connect 4 0 2 0;
#X connect 5 0 11 0;
#X connect 6 0 5 0;
#X connect 7 0 11 0;
#X connect 10 0 11 2;
#X connect 11 0 19 0;
#X connect 12 0 11 0;
#X connect 13 0 18 0;
#X connect 13 0 23 0;
#X connect 15 0 20 0;
#X connect 18 0 6 0;
#X connect 20 0 7 0;
#X connect 21 0 1 0;
#X connect 23 0 0 0;
#X restore 784 622 pd lopass;
#N canvas 0 0 2528 1340 lopass 0;
#X obj 112 130 / 25;
#X obj 50 113 mtof;
#X obj 50 158 pack 0 50;
#X obj 50 183 line~;
#X floatatom 50 136 7 0 0 0 - - -, f 7;
#X msg 238 154 saturation \$1;
#X obj 238 130 / 100;
#X msg 330 154 oversample \$1;
#X text 148 152 scaled to 0-8;
#X text 147 134 0-200 control;
#X obj 111 158 line~;
#X obj 36 234 bob~;
#X obj 36 59 inlet~;
#X obj 238 72 loadbang;
#X text 371 67 oversampling;
#X obj 375 90 loadbang;
#X text 230 33 saturation point;
#X text 227 50 of "transistors";
#X msg 238 97 300;
#X obj 36 273 outlet~;
#X msg 375 115 10;
#X obj 50 85 inlet;
#X text 141 105 resonance;
#X msg 112 105 30;
#X connect 0 0 10 0;
#X connect 1 0 4 0;
#X connect 2 0 3 0;
#X connect 3 0 11 1;
#X connect 4 0 2 0;
#X connect 5 0 11 0;
#X connect 6 0 5 0;
#X connect 7 0 11 0;
#X connect 10 0 11 2;
#X connect 11 0 19 0;
#X connect 12 0 11 0;
#X connect 13 0 18 0;
#X connect 13 0 23 0;
#X connect 15 0 20 0;
#X connect 18 0 6 0;
#X connect 20 0 7 0;
#X connect 21 0 1 0;
#X connect 23 0 0 0;
#X restore 877 622 pd lopass;
#X obj 468 515 loadbang;
#N canvas 0 0 2528 1340 synth_playback 0;
#X obj 114 124 bng 15 250 50 0 empty empty empty 17 7 0 10 -262144
-1 -1;
#X obj 43 245 *~;
#X obj 83 223 hsl 58 16 0 1 0 0 empty empty synth 0 -10 0 10 -262144
-1 -1 5700 1;
#X obj 114 62 sel 1;
#X obj 43 123 readsf~ 2;
#X obj 68 245 *~;
#X obj 114 30 r ks;
#X obj 83 169 loopcue;
#X obj 83 148 r synth;
#X msg 43 91 open soundset/synth.wav \, 1;
#X obj 43 276 outlet~;
#X obj 92 276 outlet~;
#X obj 83 190 * 2;
#X connect 0 0 9 0;
#X connect 1 0 10 0;
#X connect 2 0 1 1;
#X connect 2 0 5 1;
#X connect 3 0 0 0;
#X connect 3 1 4 0;
#X connect 4 0 1 0;
#X connect 4 1 5 0;
#X connect 4 2 0 0;
#X connect 5 0 11 0;
#X connect 6 0 3 0;
#X connect 7 0 12 0;
#X connect 8 0 7 0;
#X connect 9 0 4 0;
#X connect 12 0 2 0;
#X restore 976 579 pd synth_playback;
#X obj 1027 474 hsl 53 15 0 127 0 0 empty empty empty -2 -8 0 10 -262144
-1 -1 5200 1;
#N canvas 0 0 2528 1340 lopass 0;
#X obj 112 130 / 25;
#X obj 50 113 mtof;
#X obj 50 158 pack 0 50;
#X obj 50 183 line~;
#X floatatom 50 136 7 0 0 0 - - -, f 7;
#X msg 238 154 saturation \$1;
#X obj 238 130 / 100;
#X msg 330 154 oversample \$1;
#X text 148 152 scaled to 0-8;
#X text 147 134 0-200 control;
#X obj 111 158 line~;
#X obj 36 234 bob~;
#X obj 36 59 inlet~;
#X obj 238 72 loadbang;
#X text 371 67 oversampling;
#X obj 375 90 loadbang;
#X text 230 33 saturation point;
#X text 227 50 of "transistors";
#X msg 238 97 300;
#X obj 36 273 outlet~;
#X msg 375 115 10;
#X obj 50 85 inlet;
#X text 141 105 resonance;
#X msg 112 105 30;
#X connect 0 0 10 0;
#X connect 1 0 4 0;
#X connect 2 0 3 0;
#X connect 3 0 11 1;
#X connect 4 0 2 0;
#X connect 5 0 11 0;
#X connect 6 0 5 0;
#X connect 7 0 11 0;
#X connect 10 0 11 2;
#X connect 11 0 19 0;
#X connect 12 0 11 0;
#X connect 13 0 18 0;
#X connect 13 0 23 0;
#X connect 15 0 20 0;
#X connect 18 0 6 0;
#X connect 20 0 7 0;
#X connect 21 0 1 0;
#X connect 23 0 0 0;
#X restore 976 622 pd lopass;
#N canvas 0 0 2528 1340 lopass 0;
#X obj 112 130 / 25;
#X obj 50 113 mtof;
#X obj 50 158 pack 0 50;
#X obj 50 183 line~;
#X floatatom 50 136 7 0 0 0 - - -, f 7;
#X msg 238 154 saturation \$1;
#X obj 238 130 / 100;
#X msg 330 154 oversample \$1;
#X text 148 152 scaled to 0-8;
#X text 147 134 0-200 control;
#X obj 111 158 line~;
#X obj 36 234 bob~;
#X obj 36 59 inlet~;
#X obj 238 72 loadbang;
#X text 371 67 oversampling;
#X obj 375 90 loadbang;
#X text 230 33 saturation point;
#X text 227 50 of "transistors";
#X msg 238 97 300;
#X obj 36 273 outlet~;
#X msg 375 115 10;
#X obj 50 85 inlet;
#X text 141 105 resonance;
#X msg 112 105 30;
#X connect 0 0 10 0;
#X connect 1 0 4 0;
#X connect 2 0 3 0;
#X connect 3 0 11 1;
#X connect 4 0 2 0;
#X connect 5 0 11 0;
#X connect 6 0 5 0;
#X connect 7 0 11 0;
#X connect 10 0 11 2;
#X connect 11 0 19 0;
#X connect 12 0 11 0;
#X connect 13 0 18 0;
#X connect 13 0 23 0;
#X connect 15 0 20 0;
#X connect 18 0 6 0;
#X connect 20 0 7 0;
#X connect 21 0 1 0;
#X connect 23 0 0 0;
#X restore 1075 622 pd lopass;
#X obj 1027 452 ctlin 104;
#X obj 1027 495 expr ($f1 / 127) * 135;
#X obj 835 495 expr ($f1 / 127) * 135;
#X msg 515 579 2;
#X obj 468 535 t b b;
#X obj 1185 707 dac~, f 16;
#X obj 1185 474 hsl 53 15 0 127 0 0 empty empty empty -2 -8 0 10 -262144
-1 -1 0 1;
#X obj 1185 603 morphcue, f 16;
#X obj 1185 579 bng 15 250 50 0 empty empty empty 17 7 0 10 -262144
-1 -1;
#X msg 1231 555 123;
#X text 1206 555 bpm;
#X obj 1185 494 sel 127;
#X obj 1231 515 loadbang;
#X msg 1278 579 2;
#X obj 1231 535 t b b;
#X obj 1185 452 ctlin 105;
#N canvas 1149 132 1262 1386 fx_playback 0;
#X obj 143 122 bng 15 250 50 0 empty empty empty 17 7 0 10 -262144
-1 -1;
#X obj 72 243 *~;
#X obj 143 60 sel 1;
#X obj 72 121 readsf~ 2;
#X obj 97 243 *~;
#X obj 143 28 r ks;
#X obj 306 122 bng 15 250 50 0 empty empty empty 17 7 0 10 -262144
-1 -1;
#X obj 235 243 *~;
#X obj 306 60 sel 1;
#X obj 235 121 readsf~ 2;
#X obj 260 243 *~;
#X obj 306 28 r ks;
#X obj 154 243 loopcue;
#X obj 139 304 *~;
#X obj 164 304 *~;
#X obj 139 353 outlet~;
#X obj 189 353 outlet~;
#X obj 143 171 inlet;
#X obj 182 171 inlet;
#X msg 72 89 open soundset/fx1.wav \, 1;
#X msg 235 89 open soundset/fx2.wav \, 1;
#X obj 154 217 r fx;
#X connect 0 0 19 0;
#X connect 1 0 13 0;
#X connect 2 0 0 0;
#X connect 2 1 3 0;
#X connect 3 0 1 0;
#X connect 3 1 4 0;
#X connect 3 2 0 0;
#X connect 4 0 14 0;
#X connect 5 0 2 0;
#X connect 6 0 20 0;
#X connect 7 0 13 0;
#X connect 8 0 6 0;
#X connect 8 1 9 0;
#X connect 9 0 7 0;
#X connect 9 1 10 0;
#X connect 9 2 6 0;
#X connect 10 0 14 0;
#X connect 11 0 8 0;
#X connect 12 0 14 1;
#X connect 12 0 13 1;
#X connect 13 0 15 0;
#X connect 14 0 16 0;
#X connect 17 0 1 1;
#X connect 17 0 4 1;
#X connect 18 0 7 1;
#X connect 18 0 10 1;
#X connect 19 0 3 0;
#X connect 20 0 9 0;
#X connect 21 0 12 0;
#X restore 1185 641 pd fx_playback;
#X f 16;
#X obj 611 393 s fx;
#X obj 440 674 delaymorph;
#X obj 1203 674 delaymorph;
#X obj 62 698 freeverb~;
#X msg 6 650 wet 0.1;
#X msg 6 672 dry 0.5;
#X obj 6 628 loadbang;
#X connect 2 0 43 0;
#X connect 3 0 23 1;
#X connect 4 0 3 0;
#X connect 6 0 7 0;
#X connect 6 0 10 0;
#X connect 6 0 22 0;
#X connect 10 0 12 0;
#X connect 10 0 21 0;
#X connect 10 0 42 0;
#X connect 11 0 10 0;
#X connect 13 0 11 0;
#X connect 13 0 1 0;
#X connect 14 0 15 0;
#X connect 16 0 17 0;
#X connect 18 0 98 0;
#X connect 19 0 20 0;
#X connect 21 0 24 0;
#X connect 22 0 21 2;
#X connect 23 0 38 0;
#X connect 25 0 26 0;
#X connect 26 0 27 0;
#X connect 27 0 4 0;
#X connect 28 0 31 1;
#X connect 28 0 34 0;
#X connect 29 0 31 0;
#X connect 31 0 32 0;
#X connect 32 0 39 0;
#X connect 34 0 36 0;
#X connect 37 0 3 0;
#X connect 38 0 2 0;
#X connect 39 0 23 0;
#X connect 43 0 101 0;
#X connect 43 0 101 1;
#X connect 44 0 45 0;
#X connect 44 1 45 1;
#X connect 45 0 46 0;
#X connect 45 0 47 0;
#X connect 45 0 51 0;
#X connect 45 0 52 0;
#X connect 45 0 57 0;
#X connect 46 0 16 0;
#X connect 47 0 18 0;
#X connect 48 0 49 0;
#X connect 48 1 49 1;
#X connect 49 0 50 0;
#X connect 50 0 29 0;
#X connect 51 0 14 0;
#X connect 52 0 19 0;
#X connect 53 0 6 0;
#X connect 54 0 55 0;
#X connect 54 1 55 1;
#X connect 55 0 53 0;
#X connect 56 0 58 0;
#X connect 57 0 56 0;
#X connect 59 0 2 1;
#X connect 60 0 59 0;
#X connect 62 0 63 0;
#X connect 63 0 70 0;
#X connect 64 0 66 0;
#X connect 64 1 99 1;
#X connect 64 2 66 1;
#X connect 65 0 64 0;
#X connect 66 0 8 0;
#X connect 66 0 99 0;
#X connect 66 1 8 1;
#X connect 66 1 99 2;
#X connect 67 0 64 1;
#X connect 70 0 65 0;
#X connect 71 0 74 0;
#X connect 71 1 75 0;
#X connect 72 0 83 0;
#X connect 73 0 72 0;
#X connect 74 0 5 0;
#X connect 75 0 5 1;
#X connect 76 0 85 0;
#X connect 77 0 79 0;
#X connect 77 1 80 0;
#X connect 78 0 82 0;
#X connect 79 0 9 0;
#X connect 80 0 9 1;
#X connect 81 0 78 0;
#X connect 82 0 79 1;
#X connect 82 0 80 1;
#X connect 83 0 74 1;
#X connect 83 0 75 1;
#X connect 84 0 64 2;
#X connect 85 0 67 0;
#X connect 85 1 84 0;
#X connect 87 0 92 0;
#X connect 88 0 97 0;
#X connect 88 1 100 1;
#X connect 88 2 97 1;
#X connect 89 0 88 0;
#X connect 90 0 88 1;
#X connect 92 0 89 0;
#X connect 93 0 95 0;
#X connect 94 0 88 2;
#X connect 95 0 90 0;
#X connect 95 1 94 0;
#X connect 96 0 87 0;
#X connect 97 0 86 0;
#X connect 97 0 100 0;
#X connect 97 1 86 1;
#X connect 97 1 100 2;
#X connect 99 0 8 0;
#X connect 99 1 8 1;
#X connect 100 0 86 0;
#X connect 100 1 86 1;
#X connect 101 0 0 0;
#X connect 101 1 0 1;
#X connect 102 0 101 0;
#X connect 103 0 101 0;
#X connect 104 0 102 0;
#X connect 104 0 103 0;
