#N canvas -8 -8 2544 1356 10;
#X obj 63 646 dac~;
#X msg 859 36 \; pd dsp 1;
#X obj 63 576 *~;
#X obj 94 556 hsl 128 15 0 1 0 0 empty empty volume 0 -10 0 10 -262144
-1 -1 12700 1;
#X floatatom 84 408 6 0 0 0 - - -, f 6;
#X obj 84 381 bng 15 250 50 0 empty empty empty 17 7 0 10 -262144 -1
-1;
#X obj 380 646 dac~, f 5;
#X obj 451 483 bng 15 250 50 0 empty empty empty 17 7 0 10 -262144
-1 -1;
#X obj 380 604 *~;
#X obj 788 29 tgl 59 0 empty empty on/off 0 -10 0 10 -262144 -258049
-1 0 1;
#X obj 451 421 sel 1;
#X obj 380 482 readsf~ 2;
#X obj 405 604 *~;
#X obj 417 389 r ks;
#X obj 788 116 s ks;
#X obj 543 646 dac~, f 5;
#X obj 614 483 bng 15 250 50 0 empty empty empty 17 7 0 10 -262144
-1 -1;
#X obj 543 604 *~;
#X obj 583 574 hsl 58 16 0 1 0 0 empty empty beat 0 -10 0 10 -262144
-1 -1 0 1;
#X obj 614 421 sel 1;
#X obj 543 482 readsf~ 2;
#X obj 568 604 *~;
#X obj 580 389 r ks;
#X obj 706 646 dac~, f 5;
#X obj 777 483 bng 15 250 50 0 empty empty empty 17 7 0 10 -262144
-1 -1;
#X obj 706 604 *~;
#X obj 746 574 hsl 58 16 0 1 0 0 empty empty beat2 0 -10 0 10 -262144
-1 -1 0 1;
#X obj 777 421 sel 1;
#X obj 706 482 readsf~ 2;
#X obj 731 604 *~;
#X obj 743 389 r ks;
#X obj 875 646 dac~, f 5;
#X obj 946 483 bng 15 250 50 0 empty empty empty 17 7 0 10 -262144
-1 -1;
#X obj 875 604 *~;
#X obj 915 574 hsl 58 16 0 1 0 0 empty empty fx1 0 -10 0 10 -262144
-1 -1 0 1;
#X obj 946 421 sel 1;
#X obj 875 482 readsf~ 2;
#X obj 900 604 *~;
#X obj 912 389 r ks;
#X obj 1032 646 dac~, f 5;
#X obj 1103 483 bng 15 250 50 0 empty empty empty 17 7 0 10 -262144
-1 -1;
#X obj 1032 604 *~;
#X obj 1072 574 hsl 58 16 0 1 0 0 empty empty fx2 0 -10 0 10 -262144
-1 -1 0 1;
#X obj 1103 421 sel 1;
#X obj 1032 482 readsf~ 2;
#X obj 1057 604 *~;
#X obj 1069 389 r ks;
#X obj 1189 646 dac~, f 5;
#X obj 1260 483 bng 15 250 50 0 empty empty empty 17 7 0 10 -262144
-1 -1;
#X obj 1189 604 *~;
#X obj 1229 574 hsl 58 16 0 1 0 0 empty empty synth 0 -10 0 10 -262144
-1 -1 0 1;
#X obj 1260 421 sel 1;
#X obj 1189 482 readsf~ 2;
#X obj 1214 604 *~;
#X obj 1226 389 r ks;
#X obj 851 116 metro;
#X msg 851 71 tempo 123 permin;
#X obj 851 150 bng 24 250 50 0 empty empty empty 17 7 0 10 -262144
-1 -1;
#X obj 851 13 loadbang;
#X obj 676 275 bng 52 250 50 0 empty empty bass 15 23 0 10 -262144
-1 -1;
#X obj 420 574 hsl 58 16 0 1 0 0 empty empty bass 0 -10 0 10 -262144
-1 -1 0 1;
#X obj 420 536 loopcue;
#X obj 676 335 s bass;
#X obj 420 510 r bass;
#X obj 583 536 loopcue;
#X obj 736 275 bng 52 250 50 0 empty empty beat 15 23 0 10 -262144
-1 -1;
#X obj 736 335 s beat;
#X obj 583 510 r beat;
#X obj 797 275 bng 52 250 50 0 empty empty beat2 12 23 0 10 -262144
-1 -1;
#X obj 857 275 bng 52 250 50 0 empty empty fx1 17 23 0 10 -262144 -1
-1;
#X obj 917 275 bng 52 250 50 0 empty empty fx2 17 23 0 10 -262144 -1
-1;
#X obj 976 275 bng 52 250 50 0 empty empty synth 13 23 0 10 -262144
-1 -1;
#X obj 797 335 s beat2;
#X obj 857 335 s fx1;
#X obj 917 335 s fx2;
#X obj 976 335 s synth;
#X obj 746 537 loopcue;
#X obj 746 511 r beat2;
#X obj 915 538 loopcue;
#X obj 915 512 r fx1;
#X obj 1072 537 loopcue;
#X obj 1072 511 r fx2;
#X obj 1229 536 loopcue;
#X obj 1229 510 r synth;
#X obj 920 116 counter 1 4;
#X obj 951 94 sel 0;
#X obj 63 438 gate;
#X obj 920 154 s count;
#X obj 84 300 r count;
#X floatatom 84 327 5 0 0 0 - - -, f 5;
#X obj 84 352 sel 1;
#X obj 145 129 adc~ 2;
#X obj 76 85 bng 26 250 50 0 empty empty empty 17 7 0 10 -262144 -1
-1;
#X text 107 90 record a sample!;
#N canvas 536 663 593 522 samplerec 0;
#X obj 323 224 bng 15 250 50 0 empty empty empty 0 -6 0 8 -262144 -1
-1;
#X obj 200 192 sel 1, f 21;
#X msg 323 244 stop;
#X obj 323 286 tabwrite~ sample;
#X msg 200 321 \; sample const 0;
#X obj 213 223 del 64;
#X obj 200 129 counter 1;
#X obj 261 286 s sr;
#X obj 200 100 inlet;
#X obj 216 161 outlet;
#X obj 371 244 inlet~;
#X obj 166 100 r sr;
#X text 323 313 sample waveform:;
#X text 42 100 sr: stops recording;
#X text 40 260 start timer in pd samplestart subpatch, f 14;
#X obj 262 161 s recstate;
#X obj 133 273 s stim;
#X obj 314 334 table sample 176400;
#X text 434 334 = 4 seconds @ 44.1kHz;
#X obj 261 223 del 4000;
#X msg 34 184 \; sample normalize -1 1;
#X obj 34 159 bng 15 250 50 0 empty empty empty 17 7 0 10 -262144 -1
-1;
#X connect 0 0 2 0;
#X connect 1 0 4 0;
#X connect 1 0 5 0;
#X connect 1 0 16 0;
#X connect 1 0 19 0;
#X connect 1 1 0 0;
#X connect 2 0 3 0;
#X connect 2 0 19 0;
#X connect 5 0 3 0;
#X connect 6 0 1 0;
#X connect 6 0 9 0;
#X connect 6 0 15 0;
#X connect 8 0 6 0;
#X connect 10 0 3 0;
#X connect 11 0 6 0;
#X connect 11 0 21 0;
#X connect 19 0 7 0;
#X connect 21 0 20 0;
#X restore 76 169 pd samplerec;
#X obj 76 229 tgl 26 0 empty empty empty 17 7 0 10 -262144 -258049
-1 0 1;
#X text 9 234 recording?;
#N canvas 1262 646 843 481 samplestart 0;
#X obj 202 143 bonk~;
#X obj 230 80 loadbang;
#X obj 115 275 timer, f 16;
#X obj 115 305 * 44.1;
#X obj 208 212 gate;
#X obj 208 240 bng 15 250 50 0 empty empty empty 17 7 0 10 -262144
-1 -1;
#X msg 177 227 0;
#X msg 230 108 minvel 40;
#X obj 115 362 outlet;
#X obj 202 48 inlet~;
#X obj 115 227 r stim;
#X text 23 212 receives from pd samplerec subpatch, f 13;
#X obj 129 143 r recstate;
#X text 57 122 checks recording state;
#X obj 115 333 - 4096;
#X connect 0 1 4 1;
#X connect 1 0 7 0;
#X connect 2 0 3 0;
#X connect 3 0 14 0;
#X connect 4 0 5 0;
#X connect 5 0 2 1;
#X connect 5 0 6 0;
#X connect 6 0 4 0;
#X connect 7 0 0 0;
#X connect 9 0 0 0;
#X connect 10 0 2 0;
#X connect 12 0 4 0;
#X connect 14 0 8 0;
#X restore 160 169 pd samplestart;
#X text 188 129 set channel;
#X obj 160 238 s bonk;
#X obj 104 380 r bonk;
#X obj 63 474 tabplay~ sample;
#X obj 63 272 == 0;
#X text 121 352 triggers recorded sample at beat ...;
#X text 126 408 plays recording from ...nth sample;
#X obj 881 154 s met;
#X obj 63 610 hip~ 150;
#X msg 380 450 open soundset/bass.wav \, 1;
#X msg 543 450 open soundset/beat.wav \, 1;
#X msg 706 450 open soundset/beat2.wav \, 1;
#X msg 875 450 open soundset/fx1.wav \, 1;
#X msg 1032 450 open soundset/fx2.wav \, 1;
#X msg 1189 450 open soundset/synth.wav \, 1;
#X obj 676 201 notein;
#X obj 676 225 stripnote;
#X obj 676 249 sel 60;
#X obj 736 249 sel 61;
#X obj 797 249 sel 62;
#X obj 857 249 sel 63;
#X obj 917 249 sel 64;
#X obj 976 248 sel 65;
#X obj 76 8 notein;
#X obj 76 32 stripnote;
#X obj 76 55 sel 67;
#X obj 94 500 loadbang;
#X msg 94 526 1;
#X text 121 55 = G;
#X text 591 249 trigger midi: (60 = C), f 13;
#X connect 2 0 106 0;
#X connect 3 0 2 1;
#X connect 4 0 86 1;
#X connect 5 0 4 0;
#X connect 7 0 107 0;
#X connect 8 0 6 0;
#X connect 9 0 14 0;
#X connect 9 0 55 0;
#X connect 9 0 85 0;
#X connect 10 0 7 0;
#X connect 11 0 8 0;
#X connect 11 1 12 0;
#X connect 11 2 7 0;
#X connect 12 0 6 1;
#X connect 13 0 10 0;
#X connect 13 0 11 0;
#X connect 16 0 108 0;
#X connect 17 0 15 0;
#X connect 18 0 17 1;
#X connect 18 0 21 1;
#X connect 19 0 16 0;
#X connect 20 0 17 0;
#X connect 20 1 21 0;
#X connect 20 2 16 0;
#X connect 21 0 15 1;
#X connect 22 0 19 0;
#X connect 22 0 20 0;
#X connect 24 0 109 0;
#X connect 25 0 23 0;
#X connect 26 0 25 1;
#X connect 26 0 29 1;
#X connect 27 0 24 0;
#X connect 28 0 25 0;
#X connect 28 1 29 0;
#X connect 28 2 24 0;
#X connect 29 0 23 1;
#X connect 30 0 27 0;
#X connect 30 0 28 0;
#X connect 32 0 110 0;
#X connect 33 0 31 0;
#X connect 34 0 33 1;
#X connect 34 0 37 1;
#X connect 35 0 32 0;
#X connect 36 0 33 0;
#X connect 36 1 37 0;
#X connect 36 2 32 0;
#X connect 37 0 31 1;
#X connect 38 0 35 0;
#X connect 38 0 36 0;
#X connect 40 0 111 0;
#X connect 41 0 39 0;
#X connect 42 0 41 1;
#X connect 42 0 45 1;
#X connect 43 0 40 0;
#X connect 44 0 41 0;
#X connect 44 1 45 0;
#X connect 44 2 40 0;
#X connect 45 0 39 1;
#X connect 46 0 43 0;
#X connect 46 0 44 0;
#X connect 48 0 112 0;
#X connect 49 0 47 0;
#X connect 50 0 49 1;
#X connect 50 0 53 1;
#X connect 51 0 48 0;
#X connect 52 0 49 0;
#X connect 52 1 53 0;
#X connect 52 2 48 0;
#X connect 53 0 47 1;
#X connect 54 0 51 0;
#X connect 54 0 52 0;
#X connect 55 0 57 0;
#X connect 55 0 84 0;
#X connect 55 0 105 0;
#X connect 56 0 55 0;
#X connect 58 0 56 0;
#X connect 58 0 1 0;
#X connect 59 0 62 0;
#X connect 60 0 8 1;
#X connect 60 0 12 1;
#X connect 61 0 60 0;
#X connect 63 0 61 0;
#X connect 64 0 18 0;
#X connect 65 0 66 0;
#X connect 67 0 64 0;
#X connect 68 0 72 0;
#X connect 69 0 73 0;
#X connect 70 0 74 0;
#X connect 71 0 75 0;
#X connect 76 0 26 0;
#X connect 77 0 76 0;
#X connect 78 0 34 0;
#X connect 79 0 78 0;
#X connect 80 0 42 0;
#X connect 81 0 80 0;
#X connect 82 0 50 0;
#X connect 83 0 82 0;
#X connect 84 0 87 0;
#X connect 85 0 84 2;
#X connect 86 0 101 0;
#X connect 88 0 89 0;
#X connect 89 0 90 0;
#X connect 90 0 5 0;
#X connect 91 0 94 1;
#X connect 91 0 97 0;
#X connect 92 0 94 0;
#X connect 94 0 95 0;
#X connect 95 0 102 0;
#X connect 97 0 99 0;
#X connect 100 0 4 0;
#X connect 101 0 2 0;
#X connect 102 0 86 0;
#X connect 106 0 0 1;
#X connect 106 0 0 0;
#X connect 107 0 11 0;
#X connect 108 0 20 0;
#X connect 109 0 28 0;
#X connect 110 0 36 0;
#X connect 111 0 44 0;
#X connect 112 0 52 0;
#X connect 113 0 114 0;
#X connect 113 1 114 1;
#X connect 114 0 115 0;
#X connect 114 0 116 0;
#X connect 114 0 117 0;
#X connect 114 0 118 0;
#X connect 114 0 119 0;
#X connect 114 0 120 0;
#X connect 115 0 59 0;
#X connect 116 0 65 0;
#X connect 117 0 68 0;
#X connect 118 0 69 0;
#X connect 119 0 70 0;
#X connect 120 0 71 0;
#X connect 121 0 122 0;
#X connect 121 1 122 1;
#X connect 122 0 123 0;
#X connect 123 0 92 0;
#X connect 124 0 125 0;
#X connect 125 0 3 0;
