#N canvas 1039 520 943 605 10;
#X obj 145 156 line;
#X obj 83 218 *~;
#X obj 32 218 *~;
#X obj 211 100 delay;
#X floatatom 145 100 8 0 0 0 - - -, f 8;
#X obj 32 26 inlet~;
#X obj 83 26 inlet~;
#X obj 32 328 outlet~;
#X obj 88 328 outlet~;
#X msg 151 79 set \$1;
#X obj 103 279 *~;
#X obj 47 279 *~;
#N canvas 633 0 1262 1340 phaser 0;
#X obj 117 99 +~ 1;
#X obj 117 126 *~ 0.5;
#X obj 49 487 *~ 1;
#X obj 117 72 osc~ 1;
#X obj 20 519 +~, f 4;
#X obj 490 63 loadbang;
#X obj 117 50 nbx 5 14 -1e+037 1e+037 0 0 empty \$0-rate empty 0 -8
0 10 -262144 -1 -1 0.25 256 0;
#X obj 489 113 s \$0-rate;
#X obj 186 158 nbx 5 14 0 1e+037 0 0 empty \$0-depth empty 0 -8 0 10
-262144 -1 -1 0.75 256 0;
#X obj 453 138 s \$0-depth;
#X obj 202 198 nbx 5 14 0 1e+037 0 0 empty \$0-shift empty 0 -8 0 10
-262144 -1 -1 0.0001 256 0;
#X obj 405 165 s \$0-shift;
#X obj 364 191 s \$0-feedback;
#X obj 78 463 nbx 5 14 0 1 0 0 empty \$0-feedback empty 0 -8 0 10 -262144
-1 -1 0.75 256 0;
#X msg 405 135 0.0001;
#N canvas 0 22 622 635 apset~ 0;
#N canvas 0 22 450 300 ap~ 0;
#X obj 127 160 rpole~;
#X obj 127 135 rzero_rev~;
#X obj 127 92 inlet~;
#X obj 127 185 outlet~;
#X obj 204 92 inlet~;
#X connect 0 0 3 0;
#X connect 1 0 0 0;
#X connect 2 0 1 0;
#X connect 4 0 1 1;
#X connect 4 0 0 1;
#X restore 155 36 pd ap~;
#N canvas 0 22 450 300 ap~ 0;
#X obj 127 160 rpole~;
#X obj 127 135 rzero_rev~;
#X obj 127 92 inlet~;
#X obj 127 185 outlet~;
#X obj 204 92 inlet~;
#X connect 0 0 3 0;
#X connect 1 0 0 0;
#X connect 2 0 1 0;
#X connect 4 0 1 1;
#X connect 4 0 0 1;
#X restore 155 66 pd ap~;
#N canvas 0 22 450 300 ap~ 0;
#X obj 127 160 rpole~;
#X obj 127 135 rzero_rev~;
#X obj 127 92 inlet~;
#X obj 127 185 outlet~;
#X obj 204 92 inlet~;
#X connect 0 0 3 0;
#X connect 1 0 0 0;
#X connect 2 0 1 0;
#X connect 4 0 1 1;
#X connect 4 0 0 1;
#X restore 155 96 pd ap~;
#N canvas 0 22 450 300 ap~ 0;
#X obj 127 160 rpole~;
#X obj 127 135 rzero_rev~;
#X obj 127 92 inlet~;
#X obj 127 185 outlet~;
#X obj 204 92 inlet~;
#X connect 0 0 3 0;
#X connect 1 0 0 0;
#X connect 2 0 1 0;
#X connect 4 0 1 1;
#X connect 4 0 0 1;
#X restore 155 126 pd ap~;
#N canvas 0 22 450 300 ap~ 0;
#X obj 127 160 rpole~;
#X obj 127 135 rzero_rev~;
#X obj 127 92 inlet~;
#X obj 127 185 outlet~;
#X obj 204 92 inlet~;
#X connect 0 0 3 0;
#X connect 1 0 0 0;
#X connect 2 0 1 0;
#X connect 4 0 1 1;
#X connect 4 0 0 1;
#X restore 155 156 pd ap~;
#N canvas 0 22 450 300 ap~ 0;
#X obj 127 160 rpole~;
#X obj 127 135 rzero_rev~;
#X obj 127 92 inlet~;
#X obj 127 185 outlet~;
#X obj 204 92 inlet~;
#X connect 0 0 3 0;
#X connect 1 0 0 0;
#X connect 2 0 1 0;
#X connect 4 0 1 1;
#X connect 4 0 0 1;
#X restore 155 186 pd ap~;
#N canvas 0 22 450 300 ap~ 0;
#X obj 127 160 rpole~;
#X obj 127 135 rzero_rev~;
#X obj 127 92 inlet~;
#X obj 127 185 outlet~;
#X obj 204 92 inlet~;
#X connect 0 0 3 0;
#X connect 1 0 0 0;
#X connect 2 0 1 0;
#X connect 4 0 1 1;
#X connect 4 0 0 1;
#X restore 155 216 pd ap~;
#N canvas 0 22 450 300 ap~ 0;
#X obj 127 160 rpole~;
#X obj 127 135 rzero_rev~;
#X obj 127 92 inlet~;
#X obj 127 185 outlet~;
#X obj 204 92 inlet~;
#X connect 0 0 3 0;
#X connect 1 0 0 0;
#X connect 2 0 1 0;
#X connect 4 0 1 1;
#X connect 4 0 0 1;
#X restore 155 246 pd ap~;
#N canvas 0 22 450 300 ap~ 0;
#X obj 127 160 rpole~;
#X obj 127 135 rzero_rev~;
#X obj 127 92 inlet~;
#X obj 127 185 outlet~;
#X obj 204 92 inlet~;
#X connect 0 0 3 0;
#X connect 1 0 0 0;
#X connect 2 0 1 0;
#X connect 4 0 1 1;
#X connect 4 0 0 1;
#X restore 155 276 pd ap~;
#N canvas 0 22 450 300 ap~ 0;
#X obj 127 160 rpole~;
#X obj 127 135 rzero_rev~;
#X obj 127 92 inlet~;
#X obj 127 185 outlet~;
#X obj 204 92 inlet~;
#X connect 0 0 3 0;
#X connect 1 0 0 0;
#X connect 2 0 1 0;
#X connect 4 0 1 1;
#X connect 4 0 0 1;
#X restore 155 306 pd ap~;
#N canvas 0 22 450 300 ap~ 0;
#X obj 127 160 rpole~;
#X obj 127 135 rzero_rev~;
#X obj 127 92 inlet~;
#X obj 127 185 outlet~;
#X obj 204 92 inlet~;
#X connect 0 0 3 0;
#X connect 1 0 0 0;
#X connect 2 0 1 0;
#X connect 4 0 1 1;
#X connect 4 0 0 1;
#X restore 155 336 pd ap~;
#N canvas 0 22 450 300 ap~ 0;
#X obj 127 160 rpole~;
#X obj 127 135 rzero_rev~;
#X obj 127 92 inlet~;
#X obj 127 185 outlet~;
#X obj 204 92 inlet~;
#X connect 0 0 3 0;
#X connect 1 0 0 0;
#X connect 2 0 1 0;
#X connect 4 0 1 1;
#X connect 4 0 0 1;
#X restore 155 366 pd ap~;
#N canvas 0 22 450 300 ap~ 0;
#X obj 127 160 rpole~;
#X obj 127 135 rzero_rev~;
#X obj 127 92 inlet~;
#X obj 127 185 outlet~;
#X obj 204 92 inlet~;
#X connect 0 0 3 0;
#X connect 1 0 0 0;
#X connect 2 0 1 0;
#X connect 4 0 1 1;
#X connect 4 0 0 1;
#X restore 155 396 pd ap~;
#N canvas 0 22 450 300 ap~ 0;
#X obj 127 160 rpole~;
#X obj 127 135 rzero_rev~;
#X obj 127 92 inlet~;
#X obj 127 185 outlet~;
#X obj 204 92 inlet~;
#X connect 0 0 3 0;
#X connect 1 0 0 0;
#X connect 2 0 1 0;
#X connect 4 0 1 1;
#X connect 4 0 0 1;
#X restore 155 426 pd ap~;
#N canvas 0 22 450 300 ap~ 0;
#X obj 127 160 rpole~;
#X obj 127 135 rzero_rev~;
#X obj 127 92 inlet~;
#X obj 127 185 outlet~;
#X obj 204 92 inlet~;
#X connect 0 0 3 0;
#X connect 1 0 0 0;
#X connect 2 0 1 0;
#X connect 4 0 1 1;
#X connect 4 0 0 1;
#X restore 155 456 pd ap~;
#N canvas 0 22 450 300 ap~ 0;
#X obj 127 160 rpole~;
#X obj 127 135 rzero_rev~;
#X obj 127 92 inlet~;
#X obj 127 185 outlet~;
#X obj 204 92 inlet~;
#X connect 0 0 3 0;
#X connect 1 0 0 0;
#X connect 2 0 1 0;
#X connect 4 0 1 1;
#X connect 4 0 0 1;
#X restore 155 486 pd ap~;
#X obj 155 6 inlet~;
#X obj 225 6 inlet~;
#X obj 155 511 outlet~;
#X connect 0 0 1 0;
#X connect 1 0 2 0;
#X connect 2 0 3 0;
#X connect 3 0 4 0;
#X connect 4 0 5 0;
#X connect 5 0 6 0;
#X connect 6 0 7 0;
#X connect 7 0 8 0;
#X connect 8 0 9 0;
#X connect 9 0 10 0;
#X connect 10 0 11 0;
#X connect 11 0 12 0;
#X connect 12 0 13 0;
#X connect 13 0 14 0;
#X connect 14 0 15 0;
#X connect 15 0 18 0;
#X connect 16 0 0 0;
#X connect 17 0 0 1;
#X connect 17 0 1 1;
#X connect 17 0 2 1;
#X connect 17 0 3 1;
#X connect 17 0 4 1;
#X connect 17 0 5 1;
#X connect 17 0 6 1;
#X connect 17 0 7 1;
#X connect 17 0 8 1;
#X connect 17 0 9 1;
#X connect 17 0 10 1;
#X connect 17 0 11 1;
#X connect 17 0 12 1;
#X connect 17 0 13 1;
#X connect 17 0 14 1;
#X connect 17 0 15 1;
#X restore 49 423 pd apset~;
#X obj 117 185 *~ 0.3, f 9;
#X obj 117 225 +~ 0.6, f 11;
#X obj 117 399 clip~ 0 1;
#X text 89 47 LFO;
#X obj 20 346 inlet~;
#X obj 20 598 outlet~;
#X msg 490 88 0.25;
#X text 245 154 depth (ms);
#X text 262 194 shift (ms);
#X text 138 461 feedback (0-1);
#X msg 453 113 0.75;
#X msg 364 161 0.75;
#X connect 0 0 1 0;
#X connect 1 0 16 0;
#X connect 2 0 4 1;
#X connect 3 0 0 0;
#X connect 4 0 21 0;
#X connect 5 0 22 0;
#X connect 5 0 26 0;
#X connect 5 0 14 0;
#X connect 5 0 27 0;
#X connect 6 0 3 0;
#X connect 8 0 16 1;
#X connect 10 0 17 1;
#X connect 13 0 2 1;
#X connect 14 0 11 0;
#X connect 15 0 2 0;
#X connect 16 0 17 0;
#X connect 17 0 18 0;
#X connect 18 0 15 1;
#X connect 20 0 15 0;
#X connect 20 0 4 0;
#X connect 22 0 7 0;
#X connect 26 0 9 0;
#X connect 27 0 12 0;
#X restore 108 300 pd phaser;
#X obj 32 242 hip~ 500;
#X obj 88 242 hip~ 500;
#N canvas 633 0 1262 1340 phaser 0;
#X obj 117 99 +~ 1;
#X obj 117 126 *~ 0.5;
#X obj 49 487 *~ 1;
#X obj 117 72 osc~ 1;
#X obj 20 519 +~, f 4;
#X obj 490 63 loadbang;
#X obj 117 50 nbx 5 14 -1e+037 1e+037 0 0 empty \$0-rate empty 0 -8
0 10 -262144 -1 -1 0.25 256 0;
#X obj 489 113 s \$0-rate;
#X obj 186 158 nbx 5 14 0 1e+037 0 0 empty \$0-depth empty 0 -8 0 10
-262144 -1 -1 0.75 256 0;
#X obj 453 138 s \$0-depth;
#X obj 202 198 nbx 5 14 0 1e+037 0 0 empty \$0-shift empty 0 -8 0 10
-262144 -1 -1 0.0001 256 0;
#X obj 405 165 s \$0-shift;
#X obj 364 191 s \$0-feedback;
#X obj 78 463 nbx 5 14 0 1 0 0 empty \$0-feedback empty 0 -8 0 10 -262144
-1 -1 0.75 256 0;
#X msg 405 135 0.0001;
#N canvas 0 22 622 635 apset~ 0;
#N canvas 0 22 450 300 ap~ 0;
#X obj 127 160 rpole~;
#X obj 127 135 rzero_rev~;
#X obj 127 92 inlet~;
#X obj 127 185 outlet~;
#X obj 204 92 inlet~;
#X connect 0 0 3 0;
#X connect 1 0 0 0;
#X connect 2 0 1 0;
#X connect 4 0 1 1;
#X connect 4 0 0 1;
#X restore 155 36 pd ap~;
#N canvas 0 22 450 300 ap~ 0;
#X obj 127 160 rpole~;
#X obj 127 135 rzero_rev~;
#X obj 127 92 inlet~;
#X obj 127 185 outlet~;
#X obj 204 92 inlet~;
#X connect 0 0 3 0;
#X connect 1 0 0 0;
#X connect 2 0 1 0;
#X connect 4 0 1 1;
#X connect 4 0 0 1;
#X restore 155 66 pd ap~;
#N canvas 0 22 450 300 ap~ 0;
#X obj 127 160 rpole~;
#X obj 127 135 rzero_rev~;
#X obj 127 92 inlet~;
#X obj 127 185 outlet~;
#X obj 204 92 inlet~;
#X connect 0 0 3 0;
#X connect 1 0 0 0;
#X connect 2 0 1 0;
#X connect 4 0 1 1;
#X connect 4 0 0 1;
#X restore 155 96 pd ap~;
#N canvas 0 22 450 300 ap~ 0;
#X obj 127 160 rpole~;
#X obj 127 135 rzero_rev~;
#X obj 127 92 inlet~;
#X obj 127 185 outlet~;
#X obj 204 92 inlet~;
#X connect 0 0 3 0;
#X connect 1 0 0 0;
#X connect 2 0 1 0;
#X connect 4 0 1 1;
#X connect 4 0 0 1;
#X restore 155 126 pd ap~;
#N canvas 0 22 450 300 ap~ 0;
#X obj 127 160 rpole~;
#X obj 127 135 rzero_rev~;
#X obj 127 92 inlet~;
#X obj 127 185 outlet~;
#X obj 204 92 inlet~;
#X connect 0 0 3 0;
#X connect 1 0 0 0;
#X connect 2 0 1 0;
#X connect 4 0 1 1;
#X connect 4 0 0 1;
#X restore 155 156 pd ap~;
#N canvas 0 22 450 300 ap~ 0;
#X obj 127 160 rpole~;
#X obj 127 135 rzero_rev~;
#X obj 127 92 inlet~;
#X obj 127 185 outlet~;
#X obj 204 92 inlet~;
#X connect 0 0 3 0;
#X connect 1 0 0 0;
#X connect 2 0 1 0;
#X connect 4 0 1 1;
#X connect 4 0 0 1;
#X restore 155 186 pd ap~;
#N canvas 0 22 450 300 ap~ 0;
#X obj 127 160 rpole~;
#X obj 127 135 rzero_rev~;
#X obj 127 92 inlet~;
#X obj 127 185 outlet~;
#X obj 204 92 inlet~;
#X connect 0 0 3 0;
#X connect 1 0 0 0;
#X connect 2 0 1 0;
#X connect 4 0 1 1;
#X connect 4 0 0 1;
#X restore 155 216 pd ap~;
#N canvas 0 22 450 300 ap~ 0;
#X obj 127 160 rpole~;
#X obj 127 135 rzero_rev~;
#X obj 127 92 inlet~;
#X obj 127 185 outlet~;
#X obj 204 92 inlet~;
#X connect 0 0 3 0;
#X connect 1 0 0 0;
#X connect 2 0 1 0;
#X connect 4 0 1 1;
#X connect 4 0 0 1;
#X restore 155 246 pd ap~;
#N canvas 0 22 450 300 ap~ 0;
#X obj 127 160 rpole~;
#X obj 127 135 rzero_rev~;
#X obj 127 92 inlet~;
#X obj 127 185 outlet~;
#X obj 204 92 inlet~;
#X connect 0 0 3 0;
#X connect 1 0 0 0;
#X connect 2 0 1 0;
#X connect 4 0 1 1;
#X connect 4 0 0 1;
#X restore 155 276 pd ap~;
#N canvas 0 22 450 300 ap~ 0;
#X obj 127 160 rpole~;
#X obj 127 135 rzero_rev~;
#X obj 127 92 inlet~;
#X obj 127 185 outlet~;
#X obj 204 92 inlet~;
#X connect 0 0 3 0;
#X connect 1 0 0 0;
#X connect 2 0 1 0;
#X connect 4 0 1 1;
#X connect 4 0 0 1;
#X restore 155 306 pd ap~;
#N canvas 0 22 450 300 ap~ 0;
#X obj 127 160 rpole~;
#X obj 127 135 rzero_rev~;
#X obj 127 92 inlet~;
#X obj 127 185 outlet~;
#X obj 204 92 inlet~;
#X connect 0 0 3 0;
#X connect 1 0 0 0;
#X connect 2 0 1 0;
#X connect 4 0 1 1;
#X connect 4 0 0 1;
#X restore 155 336 pd ap~;
#N canvas 0 22 450 300 ap~ 0;
#X obj 127 160 rpole~;
#X obj 127 135 rzero_rev~;
#X obj 127 92 inlet~;
#X obj 127 185 outlet~;
#X obj 204 92 inlet~;
#X connect 0 0 3 0;
#X connect 1 0 0 0;
#X connect 2 0 1 0;
#X connect 4 0 1 1;
#X connect 4 0 0 1;
#X restore 155 366 pd ap~;
#N canvas 0 22 450 300 ap~ 0;
#X obj 127 160 rpole~;
#X obj 127 135 rzero_rev~;
#X obj 127 92 inlet~;
#X obj 127 185 outlet~;
#X obj 204 92 inlet~;
#X connect 0 0 3 0;
#X connect 1 0 0 0;
#X connect 2 0 1 0;
#X connect 4 0 1 1;
#X connect 4 0 0 1;
#X restore 155 396 pd ap~;
#N canvas 0 22 450 300 ap~ 0;
#X obj 127 160 rpole~;
#X obj 127 135 rzero_rev~;
#X obj 127 92 inlet~;
#X obj 127 185 outlet~;
#X obj 204 92 inlet~;
#X connect 0 0 3 0;
#X connect 1 0 0 0;
#X connect 2 0 1 0;
#X connect 4 0 1 1;
#X connect 4 0 0 1;
#X restore 155 426 pd ap~;
#N canvas 0 22 450 300 ap~ 0;
#X obj 127 160 rpole~;
#X obj 127 135 rzero_rev~;
#X obj 127 92 inlet~;
#X obj 127 185 outlet~;
#X obj 204 92 inlet~;
#X connect 0 0 3 0;
#X connect 1 0 0 0;
#X connect 2 0 1 0;
#X connect 4 0 1 1;
#X connect 4 0 0 1;
#X restore 155 456 pd ap~;
#N canvas 0 22 450 300 ap~ 0;
#X obj 127 160 rpole~;
#X obj 127 135 rzero_rev~;
#X obj 127 92 inlet~;
#X obj 127 185 outlet~;
#X obj 204 92 inlet~;
#X connect 0 0 3 0;
#X connect 1 0 0 0;
#X connect 2 0 1 0;
#X connect 4 0 1 1;
#X connect 4 0 0 1;
#X restore 155 486 pd ap~;
#X obj 155 6 inlet~;
#X obj 225 6 inlet~;
#X obj 155 511 outlet~;
#X connect 0 0 1 0;
#X connect 1 0 2 0;
#X connect 2 0 3 0;
#X connect 3 0 4 0;
#X connect 4 0 5 0;
#X connect 5 0 6 0;
#X connect 6 0 7 0;
#X connect 7 0 8 0;
#X connect 8 0 9 0;
#X connect 9 0 10 0;
#X connect 10 0 11 0;
#X connect 11 0 12 0;
#X connect 12 0 13 0;
#X connect 13 0 14 0;
#X connect 14 0 15 0;
#X connect 15 0 18 0;
#X connect 16 0 0 0;
#X connect 17 0 0 1;
#X connect 17 0 1 1;
#X connect 17 0 2 1;
#X connect 17 0 3 1;
#X connect 17 0 4 1;
#X connect 17 0 5 1;
#X connect 17 0 6 1;
#X connect 17 0 7 1;
#X connect 17 0 8 1;
#X connect 17 0 9 1;
#X connect 17 0 10 1;
#X connect 17 0 11 1;
#X connect 17 0 12 1;
#X connect 17 0 13 1;
#X connect 17 0 14 1;
#X connect 17 0 15 1;
#X restore 49 423 pd apset~;
#X obj 117 185 *~ 0.3, f 9;
#X obj 117 225 +~ 0.6, f 11;
#X obj 117 399 clip~ 0 1;
#X text 89 47 LFO;
#X obj 20 346 inlet~;
#X obj 20 598 outlet~;
#X msg 490 88 0.25;
#X text 245 154 depth (ms);
#X text 262 194 shift (ms);
#X text 138 461 feedback (0-1);
#X msg 453 113 0.75;
#X msg 364 161 0.75;
#X connect 0 0 1 0;
#X connect 1 0 16 0;
#X connect 2 0 4 1;
#X connect 3 0 0 0;
#X connect 4 0 21 0;
#X connect 5 0 22 0;
#X connect 5 0 26 0;
#X connect 5 0 14 0;
#X connect 5 0 27 0;
#X connect 6 0 3 0;
#X connect 8 0 16 1;
#X connect 10 0 17 1;
#X connect 13 0 2 1;
#X connect 14 0 11 0;
#X connect 15 0 2 0;
#X connect 16 0 17 0;
#X connect 17 0 18 0;
#X connect 18 0 15 1;
#X connect 20 0 15 0;
#X connect 20 0 4 0;
#X connect 22 0 7 0;
#X connect 26 0 9 0;
#X connect 27 0 12 0;
#X restore 47 300 pd phaser;
#X obj 32 72 8delay, f 9;
#X obj 61 3 inlet;
#X msg 145 124 1.25 \$1;
#X msg 211 124 0 333;
#X obj 238 26 inlet;
#X connect 0 0 1 1;
#X connect 0 0 2 1;
#X connect 0 0 10 1;
#X connect 0 0 11 1;
#X connect 1 0 14 0;
#X connect 2 0 13 0;
#X connect 3 0 19 0;
#X connect 4 0 18 0;
#X connect 5 0 16 0;
#X connect 6 0 16 1;
#X connect 9 0 4 0;
#X connect 10 0 12 0;
#X connect 11 0 15 0;
#X connect 12 0 8 0;
#X connect 13 0 11 0;
#X connect 13 0 7 0;
#X connect 14 0 10 0;
#X connect 14 0 8 0;
#X connect 15 0 7 0;
#X connect 16 0 2 0;
#X connect 16 1 1 0;
#X connect 17 0 4 0;
#X connect 17 0 3 0;
#X connect 18 0 0 0;
#X connect 19 0 0 0;
#X connect 20 0 3 1;
#X connect 20 0 9 0;
