#N canvas 298 1053 238 317 10;
#X obj 61 153 gate;
#X obj 120 25 inlet;
#X obj 61 252 outlet;
#X obj 61 226 line;
#X obj 165 124 r met;
#X obj 40 154 tgl 15 0 empty empty empty 17 7 0 10 -262144 -1 -1 0
1;
#X obj 120 104 tgl 15 0 empty empty empty 17 7 0 10 -262144 -1 -1 0
1;
#X obj 120 177 gate, f 8;
#X obj 120 153 == 0;
#X obj 99 179 tgl 15 0 empty empty empty 17 7 0 10 -262144 -1 -1 0
1;
#X msg 61 200 0.5 100;
#X msg 120 200 0 250;
#X obj 83 25 r ks;
#X msg 83 103 0;
#X obj 83 63 t b;
#X connect 0 0 10 0;
#X connect 0 0 5 0;
#X connect 1 0 6 0;
#X connect 3 0 2 0;
#X connect 4 0 0 1;
#X connect 4 0 7 1;
#X connect 5 0 0 0;
#X connect 6 0 0 0;
#X connect 6 0 8 0;
#X connect 7 0 11 0;
#X connect 7 0 9 0;
#X connect 8 0 7 0;
#X connect 9 0 7 0;
#X connect 10 0 3 0;
#X connect 11 0 3 0;
#X connect 12 0 14 0;
#X connect 13 0 6 0;
#X connect 13 0 3 0;
#X connect 14 0 13 0;
