#N canvas 1248 288 450 323 10;
#X obj 102 68 counter 1;
#X obj 102 95 sel 0;
#X obj 61 95 gate;
#X obj 61 68 r b;
#X obj 102 35 inlet;
#X obj 61 174 outlet;
#X obj 61 148 line;
#X msg 61 122 1 50;
#X msg 102 122 0 100;
#X connect 0 0 1 0;
#X connect 0 0 2 0;
#X connect 1 0 8 0;
#X connect 2 0 7 0;
#X connect 3 0 2 1;
#X connect 4 0 0 0;
#X connect 6 0 5 0;
#X connect 7 0 6 0;
#X connect 8 0 6 0;
