#N canvas 1338 225 679 572 10;
#X obj 61 95 gate;
#X obj 120 25 inlet;
#X obj 61 194 outlet;
#X obj 61 168 line;
#X obj 168 58 r met;
#X obj 40 96 tgl 15 0 empty empty empty 17 7 0 10 -262144 -1 -1 0 1
;
#X obj 120 59 tgl 15 0 empty empty empty 17 7 0 10 -262144 -1 -1 0
1;
#X obj 120 119 gate;
#X obj 120 95 == 0;
#X obj 99 121 tgl 15 0 empty empty empty 17 7 0 10 -262144 -1 -1 0
1;
#X msg 61 142 0.5 100;
#X msg 120 142 0 250;
#X connect 0 0 10 0;
#X connect 0 0 5 0;
#X connect 1 0 6 0;
#X connect 3 0 2 0;
#X connect 4 0 0 1;
#X connect 4 0 7 1;
#X connect 5 0 0 0;
#X connect 6 0 0 0;
#X connect 6 0 8 0;
#X connect 7 0 11 0;
#X connect 7 0 9 0;
#X connect 8 0 7 0;
#X connect 9 0 7 0;
#X connect 10 0 3 0;
#X connect 11 0 3 0;
