#N canvas 1489 476 450 346 10;
#X obj 110 68 counter 1;
#X obj 110 95 sel 0;
#X obj 61 95 gate;
#X obj 110 35 inlet;
#X obj 61 174 outlet;
#X obj 61 148 line;
#X obj 61 68 r met;
#X msg 110 122 0 100;
#X msg 61 122 0.5 50;
#X connect 0 0 1 0;
#X connect 0 0 2 0;
#X connect 1 0 7 0;
#X connect 2 0 8 0;
#X connect 3 0 0 0;
#X connect 5 0 4 0;
#X connect 6 0 2 1;
#X connect 7 0 5 0;
#X connect 8 0 5 0;
