#N canvas 2 66 1822 895 10;
#X msg 574 104 \; pd dsp 1;
#X obj 723 459 dac~, f 16;
#X obj 503 97 tgl 59 0 empty empty on/off 0 -10 0 10 -262144 -258049
-1 0 1;
#X obj 503 184 s ks;
#X obj 550 459 dac~, f 16;
#X obj 566 184 metro;
#X msg 566 139 tempo 123 permin;
#X obj 566 218 bng 24 250 50 0 empty empty empty 17 7 0 10 -262144
-1 -1;
#X obj 566 81 loadbang;
#X obj 839 90 bng 52 250 50 0 empty empty bass 15 23 0 10 -262144 -1
-1;
#X obj 839 150 s bass;
#X obj 776 90 bng 52 250 50 0 empty empty beat 15 23 0 10 -262144 -1
-1;
#X obj 776 150 s beat;
#X obj 965 90 bng 52 250 50 0 empty empty fx 19 22 0 10 -262144 -1
-1;
#X obj 902 90 bng 52 250 50 0 empty empty synth 13 23 0 10 -262144
-1 -1;
#X obj 902 150 s synth;
#X obj 635 184 counter 1 4;
#X obj 666 162 sel 0;
#X obj 635 222 s count;
#X obj 596 222 s met;
#X obj 122 667 hip~ 150;
#X obj 776 15 notein;
#X obj 776 39 stripnote;
#X obj 776 64 sel 61;
#X obj 965 64 sel 63;
#X obj 120 271 notein;
#X obj 120 295 stripnote;
#X obj 839 64 sel 62;
#X obj 503 15 notein;
#X obj 503 39 stripnote;
#X obj 1028 90 bng 52 250 50 0 empty empty micsamp 5 22 0 10 -262144
-1 -1;
#X text 908 15 sample triggers;
#N canvas 557 221 859 759 beat_playback 0;
#X obj 306 122 bng 15 250 50 0 empty empty empty 17 7 0 10 -262144
-1 -1;
#X obj 306 60 sel 1;
#X obj 306 28 r ks;
#X obj 204 243 loopcue;
#X obj 204 217 r beat;
#X msg 235 89 open soundset/beat2.wav \, 1;
#X obj 139 304 *~;
#X obj 260 304 *~;
#X obj 139 353 outlet~;
#X obj 260 353 outlet~;
#X obj 235 121 readsf~ 2;
#X connect 0 0 5 0;
#X connect 1 0 0 0;
#X connect 1 1 10 0;
#X connect 2 0 1 0;
#X connect 3 0 7 1;
#X connect 3 0 6 1;
#X connect 4 0 3 0;
#X connect 5 0 10 0;
#X connect 6 0 8 0;
#X connect 7 0 9 0;
#X connect 10 0 6 0;
#X connect 10 1 7 0;
#X connect 10 2 0 0;
#X restore 550 368 pd beat_playback;
#N canvas 1741 0 450 484 bass_playback 0;
#X obj 115 115 bng 15 250 50 0 empty empty empty 17 7 0 10 -262144
-1 -1;
#X obj 44 272 *~;
#X obj 115 53 sel 1;
#X obj 44 114 readsf~ 2;
#X obj 69 272 *~;
#X obj 115 21 r ks;
#X obj 84 231 hsl 58 16 0 1 0 0 empty empty bass 0 -10 0 10 -262144
-1 -1 0 1;
#X obj 84 168 loopcue;
#X obj 84 142 r bass;
#X msg 44 82 open soundset/bass.wav \, 1;
#X obj 44 297 outlet~;
#X obj 94 297 outlet~;
#X obj 84 197 * 2;
#X connect 0 0 9 0;
#X connect 1 0 10 0;
#X connect 2 0 0 0;
#X connect 2 1 3 0;
#X connect 3 0 1 0;
#X connect 3 1 4 0;
#X connect 3 2 0 0;
#X connect 4 0 11 0;
#X connect 5 0 2 0;
#X connect 6 0 1 1;
#X connect 6 0 4 1;
#X connect 7 0 12 0;
#X connect 8 0 7 0;
#X connect 9 0 3 0;
#X connect 12 0 6 0;
#X restore 723 368 pd bass_playback;
#N canvas 0 0 2528 1340 synth_playback 0;
#X obj 114 124 bng 15 250 50 0 empty empty empty 17 7 0 10 -262144
-1 -1;
#X obj 43 245 *~;
#X obj 83 223 hsl 58 16 0 1 0 0 empty empty synth 0 -10 0 10 -262144
-1 -1 0 1;
#X obj 114 62 sel 1;
#X obj 43 123 readsf~ 2;
#X obj 68 245 *~;
#X obj 114 30 r ks;
#X obj 83 169 loopcue;
#X obj 83 148 r synth;
#X msg 43 91 open soundset/synth.wav \, 1;
#X obj 43 276 outlet~;
#X obj 92 276 outlet~;
#X obj 83 190 * 2;
#X connect 0 0 9 0;
#X connect 1 0 10 0;
#X connect 2 0 1 1;
#X connect 2 0 5 1;
#X connect 3 0 0 0;
#X connect 3 1 4 0;
#X connect 4 0 1 0;
#X connect 4 1 5 0;
#X connect 4 2 0 0;
#X connect 5 0 11 0;
#X connect 6 0 3 0;
#X connect 7 0 12 0;
#X connect 8 0 7 0;
#X connect 9 0 4 0;
#X connect 12 0 2 0;
#X restore 895 368 pd synth_playback;
#N canvas 644 773 492 533 fx_playback 0;
#X obj 306 122 bng 15 250 50 0 empty empty empty 17 7 0 10 -262144
-1 -1;
#X obj 306 60 sel 1;
#X obj 235 121 readsf~ 2;
#X obj 306 28 r ks;
#X obj 204 243 loopcue;
#X obj 139 304 *~;
#X obj 260 302 *~;
#X obj 139 353 outlet~;
#X obj 260 353 outlet~;
#X msg 235 89 open soundset/fx2.wav \, 1;
#X obj 204 217 r fx;
#X connect 0 0 9 0;
#X connect 1 0 0 0;
#X connect 1 1 2 0;
#X connect 2 0 5 0;
#X connect 2 1 6 0;
#X connect 2 2 0 0;
#X connect 3 0 1 0;
#X connect 4 0 6 1;
#X connect 4 0 5 1;
#X connect 5 0 7 0;
#X connect 6 0 8 0;
#X connect 9 0 2 0;
#X connect 10 0 4 0;
#X restore 1075 368 pd fx_playback;
#X f 16;
#X obj 965 150 s fx;
#X obj 122 694 freeverb~;
#X msg 66 646 wet 0.1;
#X msg 66 668 dry 0.5;
#X obj 66 624 loadbang;
#X text 198 434 set channel;
#X obj 122 562 micrec;
#X msg 136 487 1;
#X obj 136 455 loadbang;
#X obj 268 562 micrec;
#X obj 282 455 loadbang;
#X msg 282 487 3;
#X obj 164 589 tgl 21 0 empty empty empty 17 7 0 10 -262144 -1 -1 0
1;
#X obj 310 588 tgl 21 0 empty empty empty 17 7 0 10 -262144 -1 -1 0
1;
#X text 188 591 recording?;
#X obj 550 430 *~;
#X obj 643 430 *~;
#X obj 723 430 *~;
#X obj 816 430 *~;
#X obj 831 400 r bsvol;
#X obj 658 400 r btvol;
#X obj 895 459 dac~, f 17;
#X obj 895 430 *~;
#X obj 994 430 *~;
#X obj 1009 400 r syvol;
#X obj 1075 459 dac~, f 16;
#X obj 1075 430 *~;
#X obj 1168 430 *~;
#X obj 1183 400 r fxvol;
#X obj 120 66 vsl 15 128 0 1 0 1 empty empty beat 0 -9 0 10 -262144
-1 -1 5250 1;
#X obj 182 66 vsl 15 128 0 1 0 1 empty empty bass 0 -9 0 10 -262144
-1 -1 4500 1;
#X obj 243 66 vsl 15 128 0 1 0 1 empty empty synth 0 -9 0 10 -262144
-1 -1 6600 1;
#X obj 308 66 vsl 15 128 0 1 0 1 empty empty fx 0 -9 0 10 -262144 -1
-1 5700 1;
#X obj 120 222 s btvol;
#X obj 182 222 s bsvol;
#X obj 243 222 s syvol;
#X obj 308 222 s fxvol;
#X text 250 19 MIXER;
#X obj 122 775 dac~, f 9;
#X obj 122 746 *~;
#X obj 173 745 *~;
#X obj 188 715 r mavol;
#X obj 368 66 vsl 15 128 0 1 0 1 empty empty mic\ sample 0 -9 0 10
-262144 -1 -1 12700 1;
#X obj 368 222 s mavol;
#X obj 503 63 sel 60;
#X obj 902 63 sel 63;
#X obj 1102 90 bng 52 250 50 0 empty empty micsamp 5 22 0 10 -262144
-1 -1;
#X obj 1102 63 sel 65;
#X obj 1028 63 sel 64;
#X obj 1028 150 s micsamp1;
#X obj 1102 150 s micsamp2;
#X obj 164 538 r micsamp1;
#X obj 310 538 r micsamp2;
#X obj 120 368 sel 67;
#X obj 268 368 sel 66;
#X obj 212 455 adc~ 1;
#X obj 772 839 comport 9600;
#X msg 632 774 devices;
#X msg 730 774 close;
#X text 793 710 led 1 = 13;
#X text 883 710 led 2 = 12;
#X obj 164 618 s recstate1;
#X obj 310 617 s recstate2;
#X obj 772 709 tgl 19 0 empty empty empty 17 7 0 10 -262144 -1 -1 0
1;
#X obj 862 709 tgl 19 0 empty empty empty 17 7 0 10 -262144 -1 -1 0
1;
#X obj 862 745 + 2;
#X msg 684 774 open 2;
#X text 12 474 triggers recorded sample at beat >>, f 17;
#X text 577 15 killswitch;
#X text 6 4 60 on/off 61 beat 62 bass 63 synth 64 smpl 1 65 smpl 2
66 rec 2 67 rec 1, f 9;
#X text 834 332 playback;
#X text 664 859 CLOSE port before editing/uploading to arduino!;
#X obj 793 570 r met;
#X obj 772 644 gate;
#X obj 772 595 r recstate1;
#X floatatom 772 620 2 0 0 0 - - -, f 2;
#X msg 57 327 67;
#X obj 658 619 counter 0 1;
#X obj 591 570 r micsamp1;
#X msg 658 644 set \$1;
#X floatatom 591 685 2 0 0 0 - - -, f 2;
#X obj 734 644 sel 0;
#X obj 591 595 t b b;
#X obj 658 546 r ks;
#X msg 705 644 0;
#X obj 658 570 t b b b, f 11;
#X obj 1064 570 r met;
#X obj 1043 644 gate;
#X floatatom 1043 620 2 0 0 0 - - -, f 2;
#X obj 929 619 counter 0 1;
#X msg 929 644 set \$1;
#X floatatom 862 685 2 0 0 0 - - -, f 2;
#X obj 1005 644 sel 0;
#X obj 862 595 t b b;
#X obj 929 546 r ks;
#X msg 976 644 0;
#X obj 929 570 t b b b, f 11;
#X obj 862 570 r micsamp2;
#X obj 1043 595 r recstate2;
#X connect 2 0 3 0;
#X connect 2 0 5 0;
#X connect 2 0 17 0;
#X connect 5 0 7 0;
#X connect 5 0 16 0;
#X connect 5 0 19 0;
#X connect 6 0 5 0;
#X connect 8 0 6 0;
#X connect 8 0 0 0;
#X connect 9 0 10 0;
#X connect 11 0 12 0;
#X connect 13 0 36 0;
#X connect 14 0 15 0;
#X connect 16 0 18 0;
#X connect 17 0 16 2;
#X connect 20 0 37 0;
#X connect 20 0 37 1;
#X connect 21 0 22 0;
#X connect 21 1 22 1;
#X connect 22 0 23 0;
#X connect 22 0 27 0;
#X connect 22 0 81 0;
#X connect 22 0 84 0;
#X connect 22 0 83 0;
#X connect 23 0 11 0;
#X connect 24 0 13 0;
#X connect 25 0 26 0;
#X connect 25 1 26 1;
#X connect 26 0 89 0;
#X connect 26 0 90 0;
#X connect 27 0 9 0;
#X connect 28 0 29 0;
#X connect 28 1 29 1;
#X connect 29 0 80 0;
#X connect 30 0 85 0;
#X connect 32 0 51 0;
#X connect 32 1 52 0;
#X connect 33 0 53 0;
#X connect 33 1 54 0;
#X connect 34 0 58 0;
#X connect 34 1 59 0;
#X connect 35 0 62 0;
#X connect 35 1 63 0;
#X connect 37 0 75 0;
#X connect 37 1 76 0;
#X connect 38 0 37 0;
#X connect 39 0 37 0;
#X connect 40 0 38 0;
#X connect 40 0 39 0;
#X connect 42 0 20 0;
#X connect 42 1 48 0;
#X connect 43 0 42 1;
#X connect 44 0 43 0;
#X connect 45 0 20 0;
#X connect 45 1 49 0;
#X connect 46 0 47 0;
#X connect 47 0 45 1;
#X connect 48 0 97 0;
#X connect 49 0 98 0;
#X connect 51 0 4 0;
#X connect 52 0 4 1;
#X connect 53 0 1 0;
#X connect 54 0 1 1;
#X connect 55 0 53 1;
#X connect 55 0 54 1;
#X connect 56 0 51 1;
#X connect 56 0 52 1;
#X connect 58 0 57 0;
#X connect 59 0 57 1;
#X connect 60 0 58 1;
#X connect 60 0 59 1;
#X connect 62 0 61 0;
#X connect 63 0 61 1;
#X connect 64 0 62 1;
#X connect 64 0 63 1;
#X connect 65 0 69 0;
#X connect 66 0 70 0;
#X connect 67 0 71 0;
#X connect 68 0 72 0;
#X connect 75 0 74 0;
#X connect 76 0 74 1;
#X connect 77 0 75 1;
#X connect 77 0 76 1;
#X connect 78 0 79 0;
#X connect 80 0 2 0;
#X connect 81 0 14 0;
#X connect 82 0 86 0;
#X connect 83 0 82 0;
#X connect 84 0 30 0;
#X connect 87 0 42 3;
#X connect 88 0 45 3;
#X connect 89 0 42 0;
#X connect 90 0 45 0;
#X connect 91 0 42 2;
#X connect 91 0 45 2;
#X connect 93 0 92 0;
#X connect 94 0 92 0;
#X connect 99 0 92 0;
#X connect 100 0 101 0;
#X connect 101 0 92 0;
#X connect 102 0 92 0;
#X connect 108 0 109 1;
#X connect 109 0 99 0;
#X connect 110 0 111 0;
#X connect 111 0 109 0;
#X connect 111 0 117 0;
#X connect 112 0 89 0;
#X connect 113 0 115 0;
#X connect 114 0 118 0;
#X connect 115 0 116 0;
#X connect 116 0 99 0;
#X connect 117 0 116 0;
#X connect 118 0 116 0;
#X connect 118 1 113 0;
#X connect 119 0 121 0;
#X connect 120 0 116 0;
#X connect 121 0 113 0;
#X connect 121 1 113 2;
#X connect 121 2 120 0;
#X connect 122 0 123 1;
#X connect 124 0 123 0;
#X connect 124 0 128 0;
#X connect 125 0 126 0;
#X connect 126 0 127 0;
#X connect 127 0 100 0;
#X connect 128 0 127 0;
#X connect 129 0 127 0;
#X connect 129 1 125 0;
#X connect 130 0 132 0;
#X connect 131 0 127 0;
#X connect 132 0 125 0;
#X connect 132 1 125 2;
#X connect 132 2 131 0;
#X connect 133 0 129 0;
#X connect 134 0 124 0;
