#N canvas 0 0 2528 1363 10;
#X msg 938 99 \; pd dsp 1;
#X obj 864 764 dac~, f 7;
#X obj 867 92 tgl 59 0 empty empty on/off 0 -10 0 10 -262144 -258049
-1 0 1;
#X obj 867 179 s ks;
#X obj 502 764 dac~, f 16;
#X obj 930 179 metro;
#X msg 930 134 tempo 123 permin;
#X obj 930 213 bng 24 250 50 0 empty empty empty 17 7 0 10 -262144
-1 -1;
#X obj 930 76 loadbang;
#X obj 565 335 bng 52 250 50 0 empty empty bass 15 23 0 10 -262144
-1 -1;
#X obj 565 395 s bass;
#X obj 502 335 bng 52 250 50 0 empty empty beat 15 23 0 10 -262144
-1 -1;
#X obj 502 395 s beat;
#X obj 691 335 bng 52 250 50 0 empty empty fx 19 22 0 10 -262144 -1
-1;
#X obj 628 335 bng 52 250 50 0 empty empty synth 13 23 0 10 -262144
-1 -1;
#X obj 628 395 s synth;
#X obj 999 179 counter 1 4;
#X obj 1030 157 sel 0;
#X obj 999 217 s count;
#X obj 960 217 s met;
#X obj 120 656 hip~ 150;
#X obj 502 260 notein;
#X obj 502 284 stripnote;
#X obj 502 309 sel 61;
#X obj 691 309 sel 63;
#X obj 120 260 notein;
#X obj 120 284 stripnote;
#X obj 120 307 sel 60;
#X obj 565 309 sel 62;
#X obj 628 308 sel 64;
#X obj 867 58 sel 66;
#X obj 867 10 notein;
#X obj 867 34 stripnote;
#X obj 754 335 bng 52 250 50 0 empty empty micsamp 5 22 0 10 -262144
-1 -1;
#X obj 754 308 sel 65;
#X obj 754 395 s micsamp;
#X text 606 243 sample triggers;
#X obj 502 454 ctlin 102;
#X obj 502 476 hsl 53 15 0 127 0 0 empty empty empty -2 -8 0 10 -262144
-1 -1 0 1;
#X obj 502 605 morphcue, f 16;
#X obj 502 581 bng 15 250 50 0 empty empty empty 17 7 0 10 -262144
-1 -1;
#N canvas 1488 560 859 736 beat_playback 0;
#X obj 143 122 bng 15 250 50 0 empty empty empty 17 7 0 10 -262144
-1 -1;
#X obj 72 243 *~;
#X obj 143 60 sel 1;
#X obj 97 243 *~;
#X obj 143 28 r ks;
#X obj 306 122 bng 15 250 50 0 empty empty empty 17 7 0 10 -262144
-1 -1;
#X obj 235 243 *~;
#X obj 306 60 sel 1;
#X obj 260 243 *~;
#X obj 306 28 r ks;
#X obj 154 243 loopcue;
#X obj 154 217 r beat;
#X msg 72 89 open soundset/beat.wav \, 1;
#X msg 235 89 open soundset/beat2.wav \, 1;
#X obj 139 304 *~;
#X obj 164 304 *~;
#X obj 139 353 outlet~;
#X obj 189 353 outlet~;
#X obj 143 171 inlet;
#X obj 182 171 inlet;
#X obj 72 121 readsf~ 2;
#X obj 235 121 readsf~ 2;
#X connect 0 0 12 0;
#X connect 1 0 14 0;
#X connect 2 0 0 0;
#X connect 2 1 20 0;
#X connect 3 0 15 0;
#X connect 4 0 2 0;
#X connect 5 0 13 0;
#X connect 6 0 14 0;
#X connect 7 0 5 0;
#X connect 7 1 21 0;
#X connect 8 0 15 0;
#X connect 9 0 7 0;
#X connect 10 0 15 1;
#X connect 10 0 14 1;
#X connect 11 0 10 0;
#X connect 12 0 20 0;
#X connect 13 0 21 0;
#X connect 14 0 16 0;
#X connect 15 0 17 0;
#X connect 18 0 1 1;
#X connect 18 0 3 1;
#X connect 19 0 6 1;
#X connect 19 0 8 1;
#X connect 20 0 1 0;
#X connect 20 1 3 0;
#X connect 20 2 0 0;
#X connect 21 0 6 0;
#X connect 21 1 8 0;
#X connect 21 2 5 0;
#X restore 502 643 pd beat_playback;
#X msg 548 557 123;
#X text 523 557 bpm;
#X text 624 581 how many measures the morph will take;
#X obj 502 496 sel 127;
#N canvas 1741 0 450 484 bass_playback 0;
#X obj 115 115 bng 15 250 50 0 empty empty empty 17 7 0 10 -262144
-1 -1;
#X obj 44 272 *~;
#X obj 115 53 sel 1;
#X obj 44 114 readsf~ 2;
#X obj 69 272 *~;
#X obj 115 21 r ks;
#X obj 84 231 hsl 58 16 0 1 0 0 empty empty bass 0 -10 0 10 -262144
-1 -1 0 1;
#X obj 84 168 loopcue;
#X obj 84 142 r bass;
#X msg 44 82 open soundset/bass.wav \, 1;
#X obj 44 297 outlet~;
#X obj 94 297 outlet~;
#X obj 84 197 * 2;
#X connect 0 0 9 0;
#X connect 1 0 10 0;
#X connect 2 0 0 0;
#X connect 2 1 3 0;
#X connect 3 0 1 0;
#X connect 3 1 4 0;
#X connect 3 2 0 0;
#X connect 4 0 11 0;
#X connect 5 0 2 0;
#X connect 6 0 1 1;
#X connect 6 0 4 1;
#X connect 7 0 12 0;
#X connect 8 0 7 0;
#X connect 9 0 3 0;
#X connect 12 0 6 0;
#X restore 864 581 pd bass_playback;
#X obj 923 476 hsl 53 15 0 127 0 0 empty empty empty -2 -8 0 10 -262144
-1 -1 0 1;
#X obj 923 454 ctlin 103;
#X obj 548 517 loadbang;
#N canvas 0 0 2528 1340 synth_playback 0;
#X obj 114 124 bng 15 250 50 0 empty empty empty 17 7 0 10 -262144
-1 -1;
#X obj 43 245 *~;
#X obj 83 223 hsl 58 16 0 1 0 0 empty empty synth 0 -10 0 10 -262144
-1 -1 0 1;
#X obj 114 62 sel 1;
#X obj 43 123 readsf~ 2;
#X obj 68 245 *~;
#X obj 114 30 r ks;
#X obj 83 169 loopcue;
#X obj 83 148 r synth;
#X msg 43 91 open soundset/synth.wav \, 1;
#X obj 43 276 outlet~;
#X obj 92 276 outlet~;
#X obj 83 190 * 2;
#X connect 0 0 9 0;
#X connect 1 0 10 0;
#X connect 2 0 1 1;
#X connect 2 0 5 1;
#X connect 3 0 0 0;
#X connect 3 1 4 0;
#X connect 4 0 1 0;
#X connect 4 1 5 0;
#X connect 4 2 0 0;
#X connect 5 0 11 0;
#X connect 6 0 3 0;
#X connect 7 0 12 0;
#X connect 8 0 7 0;
#X connect 9 0 4 0;
#X connect 12 0 2 0;
#X restore 1056 581 pd synth_playback;
#X obj 1116 476 hsl 53 15 0 127 0 0 empty empty empty -2 -8 0 10 -262144
-1 -1 0 1;
#X obj 1116 454 ctlin 104;
#X msg 595 581 2;
#X obj 548 537 t b b;
#X obj 1265 476 hsl 53 15 0 127 0 0 empty empty empty -2 -8 0 10 -262144
-1 -1 0 1;
#X obj 1265 605 morphcue, f 16;
#X obj 1265 581 bng 15 250 50 0 empty empty empty 17 7 0 10 -262144
-1 -1;
#X msg 1311 557 123;
#X text 1286 557 bpm;
#X obj 1265 496 sel 127;
#X obj 1311 517 loadbang;
#X msg 1358 581 2;
#X obj 1311 537 t b b;
#X obj 1265 454 ctlin 105;
#N canvas 1149 132 1262 1386 fx_playback 0;
#X obj 143 122 bng 15 250 50 0 empty empty empty 17 7 0 10 -262144
-1 -1;
#X obj 72 243 *~;
#X obj 143 60 sel 1;
#X obj 72 121 readsf~ 2;
#X obj 97 243 *~;
#X obj 143 28 r ks;
#X obj 306 122 bng 15 250 50 0 empty empty empty 17 7 0 10 -262144
-1 -1;
#X obj 235 243 *~;
#X obj 306 60 sel 1;
#X obj 235 121 readsf~ 2;
#X obj 260 243 *~;
#X obj 306 28 r ks;
#X obj 154 243 loopcue;
#X obj 139 304 *~;
#X obj 164 304 *~;
#X obj 139 353 outlet~;
#X obj 189 353 outlet~;
#X obj 143 171 inlet;
#X obj 182 171 inlet;
#X msg 72 89 open soundset/fx1.wav \, 1;
#X msg 235 89 open soundset/fx2.wav \, 1;
#X obj 154 217 r fx;
#X connect 0 0 19 0;
#X connect 1 0 13 0;
#X connect 2 0 0 0;
#X connect 2 1 3 0;
#X connect 3 0 1 0;
#X connect 3 1 4 0;
#X connect 3 2 0 0;
#X connect 4 0 14 0;
#X connect 5 0 2 0;
#X connect 6 0 20 0;
#X connect 7 0 13 0;
#X connect 8 0 6 0;
#X connect 8 1 9 0;
#X connect 9 0 7 0;
#X connect 9 1 10 0;
#X connect 9 2 6 0;
#X connect 10 0 14 0;
#X connect 11 0 8 0;
#X connect 12 0 14 1;
#X connect 12 0 13 1;
#X connect 13 0 15 0;
#X connect 14 0 16 0;
#X connect 17 0 1 1;
#X connect 17 0 4 1;
#X connect 18 0 7 1;
#X connect 18 0 10 1;
#X connect 19 0 3 0;
#X connect 20 0 9 0;
#X connect 21 0 12 0;
#X restore 1265 643 pd fx_playback;
#X f 16;
#X obj 691 395 s fx;
#X obj 520 676 delaymorph;
#X obj 1283 676 delaymorph;
#X obj 120 683 freeverb~;
#X msg 64 635 wet 0.1;
#X msg 64 657 dry 0.5;
#X obj 64 613 loadbang;
#X text 1387 581 how many measures the morph will take;
#X obj 923 496 mtof;
#X obj 864 630 lop~;
#X obj 903 630 lop~;
#X obj 1056 635 lop~;
#X obj 1095 635 lop~;
#X obj 1116 496 mtof;
#X obj 120 368 counter 1 2;
#X obj 151 336 loadbang;
#X obj 120 398 sel 1 2;
#X obj 153 503 adc~ 2;
#X text 196 503 set channel;
#X obj 120 551 micrec;
#X msg 136 476 1;
#X obj 136 444 loadbang;
#X obj 376 551 micrec;
#X obj 392 444 loadbang;
#X msg 392 476 3;
#X text 166 476 < triggers recorded sample at beat >;
#X text 11 550 sample recorder 1;
#X text 266 550 sample recorder 2;
#X obj 98 307 bng 17 250 50 0 empty empty empty 17 7 0 10 -262144 -1
-1;
#X text 68 307 test;
#X obj 153 578 tgl 21 0 empty empty empty 17 7 0 10 -262144 -1 -1 0
1;
#X obj 409 578 tgl 21 0 empty empty empty 17 7 0 10 -262144 -1 -1 0
1;
#X text 177 580 recording?;
#X obj 502 735 *~;
#X obj 595 735 *~;
#X obj 864 735 *~;
#X obj 903 735 *~;
#X obj 918 695 r bsvol;
#X obj 610 705 r btvol;
#X obj 1056 764 dac~, f 7;
#X obj 1056 735 *~;
#X obj 1095 735 *~;
#X obj 1110 695 r syvol;
#X obj 1265 764 dac~, f 16;
#X obj 1265 735 *~;
#X obj 1358 735 *~;
#X obj 1373 705 r fxvol;
#X obj 228 56 vsl 15 128 0 1 0 1 empty empty beat 0 -9 0 10 -262144
-1 -1 10600 1;
#X obj 290 56 vsl 15 128 0 1 0 1 empty empty bass 0 -9 0 10 -262144
-1 -1 10200 1;
#X obj 351 56 vsl 15 128 0 1 0 1 empty empty synth 0 -9 0 10 -262144
-1 -1 8200 1;
#X obj 416 56 vsl 15 128 0 1 0 1 empty empty fx 0 -9 0 10 -262144 -1
-1 12700 1;
#X obj 228 212 s btvol;
#X obj 290 212 s bsvol;
#X obj 351 212 s syvol;
#X obj 416 212 s fxvol;
#X text 358 9 MIXER;
#X obj 120 764 dac~, f 9;
#X obj 120 735 *~;
#X obj 171 734 *~;
#X obj 186 704 r mavol;
#X obj 476 56 vsl 15 128 0 1 0 1 empty empty mic\ sample 0 -9 0 10
-262144 -1 -1 12700 1;
#X obj 476 212 s mavol;
#X connect 2 0 3 0;
#X connect 2 0 5 0;
#X connect 2 0 17 0;
#X connect 5 0 7 0;
#X connect 5 0 16 0;
#X connect 5 0 19 0;
#X connect 6 0 5 0;
#X connect 8 0 6 0;
#X connect 8 0 0 0;
#X connect 9 0 10 0;
#X connect 11 0 12 0;
#X connect 13 0 66 0;
#X connect 14 0 15 0;
#X connect 16 0 18 0;
#X connect 17 0 16 2;
#X connect 20 0 69 0;
#X connect 20 0 69 1;
#X connect 21 0 22 0;
#X connect 21 1 22 1;
#X connect 22 0 23 0;
#X connect 22 0 24 0;
#X connect 22 0 28 0;
#X connect 22 0 29 0;
#X connect 22 0 34 0;
#X connect 23 0 11 0;
#X connect 24 0 13 0;
#X connect 25 0 26 0;
#X connect 25 1 26 1;
#X connect 26 0 27 0;
#X connect 27 0 80 0;
#X connect 28 0 9 0;
#X connect 29 0 14 0;
#X connect 30 0 2 0;
#X connect 31 0 32 0;
#X connect 31 1 32 1;
#X connect 32 0 30 0;
#X connect 33 0 35 0;
#X connect 34 0 33 0;
#X connect 37 0 38 0;
#X connect 38 0 45 0;
#X connect 39 0 41 0;
#X connect 39 1 67 1;
#X connect 39 2 41 1;
#X connect 39 3 67 3;
#X connect 40 0 39 0;
#X connect 41 0 67 0;
#X connect 41 0 99 0;
#X connect 41 1 67 2;
#X connect 41 1 100 0;
#X connect 42 0 39 1;
#X connect 45 0 40 0;
#X connect 46 0 75 0;
#X connect 46 1 76 0;
#X connect 47 0 74 0;
#X connect 48 0 47 0;
#X connect 49 0 54 0;
#X connect 50 0 77 0;
#X connect 50 1 78 0;
#X connect 51 0 79 0;
#X connect 52 0 51 0;
#X connect 53 0 39 2;
#X connect 54 0 42 0;
#X connect 54 1 53 0;
#X connect 55 0 60 0;
#X connect 56 0 65 0;
#X connect 56 1 68 1;
#X connect 56 2 65 1;
#X connect 56 3 68 3;
#X connect 57 0 56 0;
#X connect 58 0 56 1;
#X connect 60 0 57 0;
#X connect 61 0 63 0;
#X connect 62 0 56 2;
#X connect 63 0 58 0;
#X connect 63 1 62 0;
#X connect 64 0 55 0;
#X connect 65 0 68 0;
#X connect 65 0 110 0;
#X connect 65 1 68 2;
#X connect 65 1 111 0;
#X connect 67 0 99 0;
#X connect 67 1 100 0;
#X connect 68 0 110 0;
#X connect 68 1 111 0;
#X connect 69 0 123 0;
#X connect 69 1 124 0;
#X connect 70 0 69 0;
#X connect 71 0 69 0;
#X connect 72 0 70 0;
#X connect 72 0 71 0;
#X connect 74 0 75 1;
#X connect 74 0 76 1;
#X connect 75 0 101 0;
#X connect 76 0 102 0;
#X connect 77 0 106 0;
#X connect 78 0 107 0;
#X connect 79 0 78 1;
#X connect 79 0 77 1;
#X connect 80 0 82 0;
#X connect 81 0 80 2;
#X connect 82 0 85 0;
#X connect 82 1 88 0;
#X connect 83 0 85 2;
#X connect 83 0 88 2;
#X connect 85 0 20 0;
#X connect 85 1 96 0;
#X connect 86 0 85 1;
#X connect 87 0 86 0;
#X connect 88 0 20 0;
#X connect 88 1 97 0;
#X connect 89 0 90 0;
#X connect 90 0 88 1;
#X connect 94 0 80 0;
#X connect 99 0 4 0;
#X connect 100 0 4 1;
#X connect 101 0 1 0;
#X connect 102 0 1 1;
#X connect 103 0 101 1;
#X connect 103 0 102 1;
#X connect 104 0 99 1;
#X connect 104 0 100 1;
#X connect 106 0 105 0;
#X connect 107 0 105 1;
#X connect 108 0 106 1;
#X connect 108 0 107 1;
#X connect 110 0 109 0;
#X connect 111 0 109 1;
#X connect 112 0 110 1;
#X connect 112 0 111 1;
#X connect 113 0 117 0;
#X connect 114 0 118 0;
#X connect 115 0 119 0;
#X connect 116 0 120 0;
#X connect 123 0 122 0;
#X connect 124 0 122 1;
#X connect 125 0 123 1;
#X connect 125 0 124 1;
#X connect 126 0 127 0;
